G04 EAGLE Gerber RS-274X export*
G75*
%MOMM*%
%FSLAX34Y34*%
%LPD*%
%INTop Copper*%
%IPPOS*%
%AMOC8*
5,1,8,0,0,1.08239X$1,22.5*%
G01*
%ADD10C,1.508000*%
%ADD11R,1.508000X1.508000*%
%ADD12R,1.200000X1.200000*%
%ADD13C,1.508000*%
%ADD14C,1.981200*%
%ADD15C,2.184400*%
%ADD16C,1.422400*%
%ADD17C,0.808000*%
%ADD18R,1.168400X1.600200*%
%ADD19C,1.778000*%
%ADD20R,0.736600X1.270000*%
%ADD21R,2.300000X1.500000*%
%ADD22C,0.706400*%
%ADD23C,0.756400*%
%ADD24C,0.152400*%
%ADD25C,0.152400*%
%ADD26C,0.381000*%
%ADD27C,0.508000*%

G36*
X190499Y3784D02*
X190499Y3784D01*
X190498Y3786D01*
X190499Y3787D01*
X190499Y12427D01*
X190494Y12433D01*
X190494Y12442D01*
X190485Y12442D01*
X190478Y12451D01*
X190469Y12443D01*
X190457Y12444D01*
X190324Y12311D01*
X165220Y12311D01*
X163731Y13800D01*
X163731Y30904D01*
X165220Y32393D01*
X174445Y32393D01*
X174469Y32414D01*
X174468Y32416D01*
X174469Y32417D01*
X174469Y81708D01*
X174462Y81717D01*
X174462Y81725D01*
X161314Y94873D01*
X161296Y94874D01*
X161287Y94878D01*
X161024Y94769D01*
X158508Y94769D01*
X156184Y95732D01*
X154406Y97510D01*
X153443Y99834D01*
X153443Y102350D01*
X154406Y104674D01*
X155989Y106256D01*
X155989Y106265D01*
X155996Y106271D01*
X155990Y106277D01*
X155991Y106289D01*
X155979Y106289D01*
X155971Y106298D01*
X105542Y106298D01*
X105518Y106277D01*
X105519Y106275D01*
X105518Y106274D01*
X105518Y57326D01*
X105539Y57302D01*
X105541Y57303D01*
X105542Y57302D01*
X107966Y57302D01*
X109455Y55813D01*
X109455Y37707D01*
X107966Y36218D01*
X94178Y36218D01*
X93469Y36926D01*
X93437Y36928D01*
X93437Y36926D01*
X93435Y36926D01*
X92726Y36218D01*
X90302Y36218D01*
X90278Y36197D01*
X90279Y36195D01*
X90278Y36194D01*
X90278Y28623D01*
X75501Y13846D01*
X73036Y13846D01*
X73012Y13825D01*
X73013Y13823D01*
X73012Y13822D01*
X73012Y10890D01*
X71523Y9401D01*
X62053Y9401D01*
X60564Y10890D01*
X60564Y23322D01*
X60559Y23328D01*
X60559Y23337D01*
X60550Y23338D01*
X60543Y23346D01*
X60535Y23340D01*
X60533Y23340D01*
X60532Y23339D01*
X60522Y23339D01*
X60319Y23136D01*
X60318Y23127D01*
X60312Y23121D01*
X60313Y23120D01*
X60312Y23119D01*
X60312Y10890D01*
X58823Y9401D01*
X49353Y9401D01*
X47864Y10890D01*
X47864Y25694D01*
X49353Y27183D01*
X55014Y27183D01*
X55023Y27190D01*
X55031Y27190D01*
X57142Y29301D01*
X57143Y29313D01*
X57149Y29318D01*
X57149Y37317D01*
X57128Y37341D01*
X57126Y37340D01*
X57125Y37341D01*
X51079Y37341D01*
X51055Y37320D01*
X51056Y37318D01*
X51055Y37317D01*
X51055Y36496D01*
X49113Y34554D01*
X41784Y27225D01*
X41783Y27217D01*
X41780Y27214D01*
X41777Y27210D01*
X41782Y27204D01*
X41782Y27192D01*
X41793Y27192D01*
X41801Y27183D01*
X46123Y27183D01*
X47612Y25694D01*
X47612Y10890D01*
X46123Y9401D01*
X36653Y9401D01*
X35164Y10890D01*
X35164Y20546D01*
X35159Y20552D01*
X35159Y20561D01*
X35150Y20562D01*
X35143Y20570D01*
X35134Y20563D01*
X35122Y20563D01*
X34919Y20360D01*
X34918Y20348D01*
X34912Y20343D01*
X34912Y10890D01*
X33423Y9401D01*
X23953Y9401D01*
X22464Y10890D01*
X22464Y25694D01*
X23953Y27183D01*
X32390Y27183D01*
X32399Y27190D01*
X32407Y27190D01*
X42516Y37299D01*
X42517Y37308D01*
X42523Y37314D01*
X42518Y37320D01*
X42518Y37332D01*
X42507Y37332D01*
X42499Y37341D01*
X36653Y37341D01*
X35164Y38830D01*
X35164Y53634D01*
X36653Y55123D01*
X44425Y55123D01*
X44449Y55144D01*
X44448Y55146D01*
X44449Y55147D01*
X44449Y59121D01*
X44442Y59130D01*
X44442Y59138D01*
X43408Y60172D01*
X42445Y62496D01*
X42445Y65012D01*
X43408Y67336D01*
X45186Y69114D01*
X47510Y70077D01*
X50026Y70077D01*
X52350Y69114D01*
X54128Y67336D01*
X55091Y65012D01*
X55091Y62496D01*
X54128Y60172D01*
X52350Y58394D01*
X51070Y57864D01*
X51062Y57847D01*
X51055Y57841D01*
X51055Y55147D01*
X51076Y55123D01*
X51078Y55124D01*
X51079Y55123D01*
X57125Y55123D01*
X57149Y55144D01*
X57148Y55146D01*
X57149Y55147D01*
X57149Y56486D01*
X61853Y61190D01*
X61854Y61205D01*
X61858Y61209D01*
X61856Y61211D01*
X61858Y61217D01*
X61749Y61480D01*
X61749Y63996D01*
X62712Y66320D01*
X64490Y68098D01*
X66814Y69061D01*
X69330Y69061D01*
X71654Y68098D01*
X73432Y66320D01*
X74395Y63996D01*
X74395Y61480D01*
X73432Y59156D01*
X71654Y57378D01*
X69330Y56415D01*
X66814Y56415D01*
X66551Y56524D01*
X66533Y56519D01*
X66524Y56519D01*
X65170Y55165D01*
X65169Y55156D01*
X65163Y55150D01*
X65168Y55144D01*
X65168Y55132D01*
X65179Y55132D01*
X65187Y55123D01*
X71523Y55123D01*
X73012Y53634D01*
X73012Y38830D01*
X71523Y37341D01*
X63779Y37341D01*
X63755Y37320D01*
X63756Y37318D01*
X63755Y37317D01*
X63755Y27207D01*
X63776Y27183D01*
X63778Y27184D01*
X63779Y27183D01*
X71523Y27183D01*
X73012Y25694D01*
X73012Y23990D01*
X73017Y23984D01*
X73017Y23975D01*
X73026Y23975D01*
X73033Y23966D01*
X73042Y23974D01*
X73054Y23973D01*
X81379Y32298D01*
X81380Y32307D01*
X81385Y32312D01*
X81384Y32313D01*
X81386Y32316D01*
X81386Y36194D01*
X81365Y36218D01*
X81363Y36217D01*
X81362Y36218D01*
X78938Y36218D01*
X77449Y37707D01*
X77449Y55813D01*
X78938Y57302D01*
X92726Y57302D01*
X93435Y56594D01*
X93467Y56592D01*
X93467Y56594D01*
X93469Y56594D01*
X94178Y57302D01*
X96602Y57302D01*
X96626Y57323D01*
X96625Y57325D01*
X96626Y57326D01*
X96626Y106274D01*
X96605Y106298D01*
X96603Y106297D01*
X96602Y106298D01*
X68768Y106298D01*
X68759Y106291D01*
X68751Y106291D01*
X67844Y105384D01*
X65520Y104421D01*
X63004Y104421D01*
X60680Y105384D01*
X58902Y107162D01*
X57939Y109486D01*
X57939Y112002D01*
X58902Y114326D01*
X60680Y116104D01*
X63004Y117067D01*
X65520Y117067D01*
X67844Y116104D01*
X68751Y115197D01*
X68762Y115196D01*
X68768Y115190D01*
X133139Y115190D01*
X133146Y115195D01*
X133154Y115195D01*
X133155Y115204D01*
X133164Y115211D01*
X133156Y115220D01*
X133157Y115232D01*
X132816Y115572D01*
X131853Y117896D01*
X131853Y120412D01*
X132816Y122736D01*
X134594Y124514D01*
X134858Y124623D01*
X134866Y124640D01*
X134873Y124646D01*
X134873Y168500D01*
X147451Y181078D01*
X147452Y181086D01*
X147453Y181087D01*
X147452Y181089D01*
X147452Y181096D01*
X147456Y181105D01*
X147347Y181368D01*
X147347Y183884D01*
X148310Y186208D01*
X150088Y187986D01*
X152412Y188949D01*
X154928Y188949D01*
X157252Y187986D01*
X159030Y186208D01*
X159993Y183884D01*
X159993Y181368D01*
X159030Y179044D01*
X157252Y177266D01*
X154928Y176303D01*
X152412Y176303D01*
X152149Y176412D01*
X152131Y176407D01*
X152122Y176407D01*
X141486Y165771D01*
X141485Y165763D01*
X141479Y165757D01*
X141481Y165756D01*
X141479Y165754D01*
X141479Y130160D01*
X141484Y130153D01*
X141484Y130145D01*
X141493Y130144D01*
X141500Y130135D01*
X141509Y130143D01*
X141521Y130142D01*
X142976Y131598D01*
X145300Y132561D01*
X147816Y132561D01*
X150140Y131598D01*
X151918Y129820D01*
X152881Y127496D01*
X152881Y124980D01*
X151918Y122656D01*
X150140Y120878D01*
X149876Y120769D01*
X149868Y120752D01*
X149861Y120746D01*
X149861Y120504D01*
X149868Y120495D01*
X149868Y120487D01*
X150205Y120150D01*
X150217Y120149D01*
X150222Y120143D01*
X158089Y120143D01*
X158099Y120151D01*
X158111Y120155D01*
X158109Y120160D01*
X158114Y120164D01*
X158104Y120176D01*
X158099Y120190D01*
X156438Y120878D01*
X154660Y122656D01*
X153697Y124980D01*
X153697Y127496D01*
X154660Y129820D01*
X156438Y131598D01*
X156702Y131707D01*
X156709Y131722D01*
X156714Y131726D01*
X156713Y131726D01*
X156717Y131730D01*
X156717Y134972D01*
X158659Y136914D01*
X172458Y150713D01*
X174407Y152662D01*
X186936Y165191D01*
X186937Y165203D01*
X186943Y165208D01*
X186943Y216760D01*
X188885Y218702D01*
X192517Y222334D01*
X192518Y222343D01*
X192524Y222349D01*
X192519Y222355D01*
X192519Y222367D01*
X192508Y222367D01*
X192500Y222376D01*
X187471Y222376D01*
X187457Y222364D01*
X187448Y222361D01*
X186924Y221096D01*
X185216Y219388D01*
X184539Y219107D01*
X184532Y219094D01*
X184527Y219089D01*
X184528Y219088D01*
X184524Y219085D01*
X184524Y195923D01*
X184531Y195914D01*
X184531Y195905D01*
X185226Y195210D01*
X186151Y192978D01*
X186151Y190562D01*
X185226Y188330D01*
X183518Y186622D01*
X181286Y185697D01*
X178870Y185697D01*
X176638Y186622D01*
X174930Y188330D01*
X174005Y190562D01*
X174005Y192978D01*
X174930Y195210D01*
X175625Y195905D01*
X175626Y195917D01*
X175632Y195923D01*
X175632Y224679D01*
X175696Y224743D01*
X175697Y224751D01*
X175699Y224754D01*
X175697Y224756D01*
X175703Y224761D01*
X175703Y225744D01*
X176628Y227976D01*
X178336Y229684D01*
X180568Y230609D01*
X181551Y230609D01*
X181560Y230616D01*
X181569Y230616D01*
X182221Y231268D01*
X250283Y231268D01*
X258271Y223280D01*
X258282Y223279D01*
X258284Y223277D01*
X258285Y223277D01*
X258289Y223273D01*
X259272Y223273D01*
X261504Y222348D01*
X262199Y221653D01*
X262210Y221652D01*
X262212Y221650D01*
X262213Y221650D01*
X262217Y221646D01*
X277909Y221646D01*
X285624Y213931D01*
X285624Y161715D01*
X273796Y149887D01*
X273795Y149879D01*
X273795Y149875D01*
X273789Y149869D01*
X273789Y148886D01*
X272864Y146654D01*
X271156Y144946D01*
X268924Y144021D01*
X266508Y144021D01*
X264276Y144946D01*
X263561Y145661D01*
X263549Y145662D01*
X263543Y145668D01*
X249756Y145668D01*
X249747Y145661D01*
X249738Y145661D01*
X249055Y144978D01*
X246443Y142366D01*
X242850Y142366D01*
X242825Y142345D01*
X242827Y142343D01*
X242825Y142342D01*
X242825Y134782D01*
X242833Y134773D01*
X242832Y134764D01*
X243527Y134069D01*
X244452Y131837D01*
X244452Y129421D01*
X243527Y127189D01*
X241819Y125481D01*
X239587Y124556D01*
X237171Y124556D01*
X234939Y125481D01*
X233231Y127189D01*
X232306Y129421D01*
X232306Y131837D01*
X233231Y134069D01*
X233926Y134764D01*
X233927Y134776D01*
X233933Y134782D01*
X233933Y142342D01*
X233912Y142366D01*
X233910Y142365D01*
X233909Y142366D01*
X190574Y142366D01*
X190565Y142359D01*
X190556Y142359D01*
X177953Y129756D01*
X177952Y129744D01*
X177946Y129738D01*
X177946Y112713D01*
X176782Y111549D01*
X176781Y111541D01*
X176779Y111538D01*
X176781Y111536D01*
X176775Y111531D01*
X176775Y110502D01*
X175812Y108178D01*
X174034Y106400D01*
X171710Y105437D01*
X169194Y105437D01*
X167120Y106296D01*
X167114Y106294D01*
X167111Y106298D01*
X163561Y106298D01*
X163554Y106293D01*
X163546Y106293D01*
X163545Y106284D01*
X163536Y106277D01*
X163544Y106268D01*
X163543Y106256D01*
X165126Y104674D01*
X166089Y102350D01*
X166089Y99834D01*
X165980Y99571D01*
X165985Y99553D01*
X165985Y99544D01*
X181075Y84454D01*
X181075Y32417D01*
X181096Y32393D01*
X181098Y32394D01*
X181099Y32393D01*
X190324Y32393D01*
X190457Y32260D01*
X190466Y32259D01*
X190472Y32253D01*
X190478Y32259D01*
X190490Y32258D01*
X190490Y32270D01*
X190499Y32277D01*
X190499Y61000D01*
X190500Y61001D01*
X346213Y61001D01*
X346237Y61022D01*
X346236Y61024D01*
X346237Y61025D01*
X346237Y143501D01*
X346232Y143507D01*
X346232Y143516D01*
X346223Y143516D01*
X346216Y143525D01*
X346207Y143517D01*
X346195Y143518D01*
X338320Y135643D01*
X338319Y135633D01*
X338313Y135627D01*
X338314Y135626D01*
X338313Y135625D01*
X338313Y134371D01*
X336778Y130666D01*
X333942Y127830D01*
X330237Y126295D01*
X311147Y126295D01*
X307442Y127830D01*
X304606Y130666D01*
X303071Y134371D01*
X303071Y138381D01*
X304606Y142086D01*
X307442Y144922D01*
X311147Y146457D01*
X330237Y146457D01*
X333423Y145137D01*
X333435Y145142D01*
X333438Y145142D01*
X333440Y145143D01*
X333449Y145143D01*
X337558Y149251D01*
X337559Y149263D01*
X337565Y149269D01*
X337565Y182442D01*
X337557Y182452D01*
X337553Y182464D01*
X337548Y182462D01*
X337544Y182467D01*
X337532Y182457D01*
X337518Y182452D01*
X336778Y180666D01*
X333942Y177830D01*
X330237Y176295D01*
X311147Y176295D01*
X307442Y177830D01*
X304606Y180666D01*
X303071Y184371D01*
X303071Y188381D01*
X304606Y192086D01*
X307442Y194922D01*
X311147Y196457D01*
X330237Y196457D01*
X333942Y194922D01*
X336778Y192086D01*
X337518Y190300D01*
X337529Y190295D01*
X337538Y190285D01*
X337540Y190287D01*
X337541Y190287D01*
X337542Y190288D01*
X337547Y190286D01*
X337553Y190298D01*
X337565Y190309D01*
X337565Y190310D01*
X337565Y270072D01*
X337560Y270079D01*
X337560Y270087D01*
X337551Y270088D01*
X337544Y270097D01*
X337535Y270089D01*
X337523Y270090D01*
X335617Y268183D01*
X331416Y266443D01*
X326868Y266443D01*
X322667Y268183D01*
X319451Y271399D01*
X317711Y275600D01*
X317711Y297928D01*
X319451Y302129D01*
X322667Y305345D01*
X326868Y307085D01*
X331416Y307085D01*
X335617Y305345D01*
X338833Y302129D01*
X340573Y297928D01*
X340573Y282529D01*
X340580Y282520D01*
X340580Y282511D01*
X346195Y276896D01*
X346204Y276896D01*
X346210Y276889D01*
X346216Y276895D01*
X346228Y276894D01*
X346228Y276906D01*
X346237Y276913D01*
X346237Y446213D01*
X346216Y446237D01*
X346214Y446236D01*
X346213Y446237D01*
X3787Y446237D01*
X3763Y446216D01*
X3764Y446214D01*
X3763Y446213D01*
X3763Y3787D01*
X3784Y3763D01*
X3786Y3764D01*
X3787Y3763D01*
X190475Y3763D01*
X190499Y3784D01*
G37*
G36*
X198910Y155075D02*
X198910Y155075D01*
X198918Y155075D01*
X199304Y155461D01*
X204148Y155461D01*
X204153Y155465D01*
X204159Y155463D01*
X204162Y155473D01*
X204173Y155482D01*
X204166Y155490D01*
X204169Y155499D01*
X203578Y156383D01*
X203082Y157580D01*
X202829Y158852D01*
X202829Y159450D01*
X209384Y159450D01*
X209409Y159472D01*
X209407Y159473D01*
X209409Y159475D01*
X209409Y159501D01*
X209411Y159501D01*
X209411Y159475D01*
X209432Y159450D01*
X209434Y159452D01*
X209436Y159450D01*
X219384Y159450D01*
X219409Y159472D01*
X219407Y159473D01*
X219409Y159475D01*
X219409Y159501D01*
X219411Y159501D01*
X219411Y159475D01*
X219432Y159450D01*
X219434Y159452D01*
X219436Y159450D01*
X229384Y159450D01*
X229409Y159472D01*
X229407Y159473D01*
X229409Y159475D01*
X229409Y159501D01*
X229411Y159501D01*
X229411Y159475D01*
X229432Y159450D01*
X229434Y159452D01*
X229436Y159450D01*
X239384Y159450D01*
X239409Y159472D01*
X239407Y159473D01*
X239409Y159475D01*
X239409Y159501D01*
X239435Y159501D01*
X239460Y159522D01*
X239458Y159524D01*
X239460Y159526D01*
X239460Y169450D01*
X245991Y169450D01*
X245991Y168933D01*
X245996Y168927D01*
X245996Y168918D01*
X246005Y168917D01*
X246012Y168909D01*
X246015Y168911D01*
X246015Y168910D01*
X246017Y168910D01*
X246024Y168916D01*
X246033Y168916D01*
X258056Y180939D01*
X259998Y182881D01*
X267558Y182881D01*
X267572Y182893D01*
X267581Y182896D01*
X267690Y183160D01*
X269468Y184938D01*
X271792Y185901D01*
X274308Y185901D01*
X276632Y184938D01*
X276690Y184879D01*
X276699Y184879D01*
X276705Y184872D01*
X276711Y184878D01*
X276723Y184877D01*
X276723Y184889D01*
X276732Y184897D01*
X276732Y210238D01*
X276725Y210247D01*
X276725Y210256D01*
X274234Y212747D01*
X274223Y212748D01*
X274221Y212749D01*
X274216Y212754D01*
X262217Y212754D01*
X262208Y212747D01*
X262199Y212747D01*
X261504Y212052D01*
X259272Y211127D01*
X256856Y211127D01*
X254624Y212052D01*
X252916Y213760D01*
X251991Y215992D01*
X251991Y216975D01*
X251984Y216984D01*
X251984Y216993D01*
X246608Y222369D01*
X246596Y222370D01*
X246590Y222376D01*
X222997Y222376D01*
X222990Y222371D01*
X222982Y222371D01*
X222981Y222362D01*
X222972Y222355D01*
X222980Y222346D01*
X222979Y222334D01*
X223800Y221514D01*
X224763Y219190D01*
X224763Y216674D01*
X223800Y214350D01*
X222022Y212572D01*
X219698Y211609D01*
X217182Y211609D01*
X214858Y212572D01*
X213080Y214350D01*
X212117Y216674D01*
X212117Y218415D01*
X212096Y218439D01*
X212094Y218438D01*
X212093Y218439D01*
X197974Y218439D01*
X197965Y218432D01*
X197957Y218432D01*
X193556Y214031D01*
X193555Y214019D01*
X193549Y214014D01*
X193549Y162462D01*
X186197Y155110D01*
X186196Y155101D01*
X186190Y155095D01*
X186195Y155089D01*
X186195Y155077D01*
X186206Y155077D01*
X186214Y155068D01*
X198901Y155068D01*
X198910Y155075D01*
G37*
%LPC*%
G36*
X118268Y266443D02*
X118268Y266443D01*
X114067Y268183D01*
X110851Y271399D01*
X109111Y275600D01*
X109111Y297928D01*
X110851Y302129D01*
X114067Y305345D01*
X118268Y307085D01*
X122816Y307085D01*
X127017Y305345D01*
X130233Y302129D01*
X131973Y297928D01*
X131973Y291869D01*
X131994Y291845D01*
X131996Y291846D01*
X131997Y291845D01*
X234865Y291845D01*
X234874Y291852D01*
X234883Y291852D01*
X270248Y327217D01*
X270249Y327229D01*
X270255Y327235D01*
X270255Y384946D01*
X270248Y384955D01*
X270248Y384964D01*
X268762Y386450D01*
X266712Y391398D01*
X266712Y396754D01*
X268762Y401702D01*
X272549Y405489D01*
X277497Y407539D01*
X282853Y407539D01*
X287801Y405489D01*
X291588Y401702D01*
X293638Y396754D01*
X293638Y391398D01*
X291588Y386450D01*
X287801Y382663D01*
X282853Y380613D01*
X280441Y380613D01*
X280417Y380592D01*
X280418Y380590D01*
X280417Y380589D01*
X280417Y323015D01*
X277433Y320032D01*
X242068Y284667D01*
X239085Y281683D01*
X131997Y281683D01*
X131973Y281662D01*
X131974Y281660D01*
X131973Y281659D01*
X131973Y275600D01*
X130233Y271399D01*
X127017Y268183D01*
X122816Y266443D01*
X118268Y266443D01*
G37*
%LPD*%
%LPC*%
G36*
X17147Y228295D02*
X17147Y228295D01*
X13442Y229830D01*
X10606Y232666D01*
X9071Y236371D01*
X9071Y240381D01*
X10606Y244086D01*
X13442Y246922D01*
X17147Y248457D01*
X36237Y248457D01*
X39942Y246922D01*
X42778Y244086D01*
X43033Y243472D01*
X43049Y243464D01*
X43055Y243457D01*
X56937Y243457D01*
X56946Y243464D01*
X56955Y243464D01*
X76192Y262701D01*
X76193Y262713D01*
X76199Y262719D01*
X76199Y329257D01*
X98479Y351537D01*
X142567Y351537D01*
X152941Y341163D01*
X152941Y333291D01*
X152953Y333277D01*
X152956Y333268D01*
X153570Y333014D01*
X156406Y330178D01*
X157941Y326473D01*
X157941Y322463D01*
X156406Y318758D01*
X153570Y315922D01*
X149865Y314387D01*
X145855Y314387D01*
X142150Y315922D01*
X139314Y318758D01*
X137779Y322463D01*
X137779Y326473D01*
X139314Y330178D01*
X142150Y333014D01*
X142764Y333268D01*
X142772Y333284D01*
X142779Y333290D01*
X142779Y333291D01*
X142779Y336943D01*
X142772Y336952D01*
X142772Y336961D01*
X138365Y341368D01*
X138353Y341369D01*
X138347Y341375D01*
X102699Y341375D01*
X102690Y341368D01*
X102681Y341368D01*
X86368Y325055D01*
X86367Y325043D01*
X86361Y325037D01*
X86361Y258499D01*
X61157Y233295D01*
X43055Y233295D01*
X43042Y233283D01*
X43033Y233280D01*
X42778Y232666D01*
X39942Y229830D01*
X36237Y228295D01*
X17147Y228295D01*
G37*
%LPD*%
%LPC*%
G36*
X247455Y314387D02*
X247455Y314387D01*
X243750Y315922D01*
X240914Y318758D01*
X239379Y322463D01*
X239379Y326473D01*
X240914Y330178D01*
X243750Y333014D01*
X244364Y333268D01*
X244372Y333284D01*
X244379Y333290D01*
X244379Y333291D01*
X244379Y336689D01*
X244372Y336698D01*
X244372Y336707D01*
X233869Y347210D01*
X233857Y347211D01*
X233851Y347217D01*
X151565Y347217D01*
X123309Y375473D01*
X123309Y386480D01*
X123297Y386494D01*
X123294Y386503D01*
X121339Y387312D01*
X117838Y390813D01*
X115943Y395388D01*
X115943Y420152D01*
X117838Y424727D01*
X121339Y428228D01*
X125914Y430123D01*
X130866Y430123D01*
X135441Y428228D01*
X138942Y424727D01*
X140837Y420152D01*
X140837Y395388D01*
X138942Y390813D01*
X135441Y387312D01*
X133486Y386503D01*
X133478Y386486D01*
X133471Y386480D01*
X133471Y379693D01*
X133478Y379684D01*
X133478Y379675D01*
X155767Y357386D01*
X155779Y357385D01*
X155781Y357383D01*
X155785Y357379D01*
X238071Y357379D01*
X254541Y340909D01*
X254541Y333291D01*
X254553Y333277D01*
X254556Y333268D01*
X255170Y333014D01*
X258006Y330178D01*
X259541Y326473D01*
X259541Y322463D01*
X258006Y318758D01*
X255170Y315922D01*
X251465Y314387D01*
X247455Y314387D01*
G37*
%LPD*%
%LPC*%
G36*
X75876Y385417D02*
X75876Y385417D01*
X71301Y387312D01*
X67800Y390813D01*
X65905Y395388D01*
X65905Y420152D01*
X67800Y424727D01*
X71301Y428228D01*
X75876Y430123D01*
X80828Y430123D01*
X85403Y428228D01*
X88904Y424727D01*
X90799Y420152D01*
X90799Y395388D01*
X88904Y390813D01*
X85403Y387312D01*
X80828Y385417D01*
X75876Y385417D01*
G37*
%LPD*%
%LPC*%
G36*
X25838Y385417D02*
X25838Y385417D01*
X21263Y387312D01*
X17762Y390813D01*
X15867Y395388D01*
X15867Y420152D01*
X17762Y424727D01*
X21263Y428228D01*
X25838Y430123D01*
X30790Y430123D01*
X35365Y428228D01*
X38866Y424727D01*
X40761Y420152D01*
X40761Y395388D01*
X38866Y390813D01*
X35365Y387312D01*
X30790Y385417D01*
X25838Y385417D01*
G37*
%LPD*%
%LPC*%
G36*
X30652Y331151D02*
X30652Y331151D01*
X26077Y333046D01*
X22576Y336547D01*
X20681Y341122D01*
X20681Y346074D01*
X22576Y350649D01*
X26077Y354150D01*
X30652Y356045D01*
X55416Y356045D01*
X59991Y354150D01*
X63492Y350649D01*
X65387Y346074D01*
X65387Y341122D01*
X63492Y336547D01*
X59991Y333046D01*
X55416Y331151D01*
X30652Y331151D01*
G37*
%LPD*%
%LPC*%
G36*
X11253Y37341D02*
X11253Y37341D01*
X9764Y38830D01*
X9764Y53634D01*
X11253Y55123D01*
X12661Y55123D01*
X12685Y55144D01*
X12684Y55146D01*
X12685Y55147D01*
X12685Y57996D01*
X17044Y62355D01*
X17044Y62363D01*
X17049Y62368D01*
X17045Y62373D01*
X17049Y62382D01*
X16791Y63004D01*
X16791Y65520D01*
X17754Y67844D01*
X19532Y69622D01*
X21856Y70585D01*
X24372Y70585D01*
X26696Y69622D01*
X28474Y67844D01*
X29437Y65520D01*
X29437Y65038D01*
X29445Y65028D01*
X29449Y65016D01*
X29454Y65018D01*
X29458Y65013D01*
X29470Y65023D01*
X29484Y65028D01*
X30440Y67336D01*
X32218Y69114D01*
X34542Y70077D01*
X37058Y70077D01*
X39382Y69114D01*
X41160Y67336D01*
X42123Y65012D01*
X42123Y62496D01*
X41160Y60172D01*
X39382Y58394D01*
X37058Y57431D01*
X34542Y57431D01*
X34279Y57540D01*
X34272Y57538D01*
X34265Y57538D01*
X34261Y57535D01*
X34252Y57535D01*
X31998Y55281D01*
X31997Y55273D01*
X31997Y55272D01*
X31997Y55269D01*
X31991Y55264D01*
X31991Y55147D01*
X32012Y55123D01*
X32014Y55124D01*
X32015Y55123D01*
X33423Y55123D01*
X34912Y53634D01*
X34912Y38830D01*
X33423Y37341D01*
X23953Y37341D01*
X22464Y38830D01*
X22464Y53634D01*
X23953Y55123D01*
X25361Y55123D01*
X25385Y55144D01*
X25384Y55146D01*
X25385Y55147D01*
X25385Y58010D01*
X25894Y58518D01*
X25894Y58531D01*
X25900Y58542D01*
X25895Y58545D01*
X25896Y58551D01*
X25880Y58552D01*
X25867Y58559D01*
X24372Y57939D01*
X21980Y57939D01*
X21971Y57932D01*
X21963Y57932D01*
X19298Y55267D01*
X19297Y55255D01*
X19291Y55250D01*
X19291Y55147D01*
X19312Y55123D01*
X19314Y55124D01*
X19315Y55123D01*
X20723Y55123D01*
X22212Y53634D01*
X22212Y38830D01*
X20723Y37341D01*
X11253Y37341D01*
G37*
%LPD*%
%LPC*%
G36*
X320271Y406013D02*
X320271Y406013D01*
X315323Y408063D01*
X311536Y411850D01*
X309486Y416798D01*
X309486Y422154D01*
X311536Y427102D01*
X315323Y430889D01*
X320271Y432939D01*
X325627Y432939D01*
X330575Y430889D01*
X334362Y427102D01*
X336412Y422154D01*
X336412Y416798D01*
X334362Y411850D01*
X330575Y408063D01*
X325627Y406013D01*
X320271Y406013D01*
G37*
%LPD*%
%LPC*%
G36*
X183060Y396209D02*
X183060Y396209D01*
X179512Y397679D01*
X176797Y400394D01*
X175327Y403942D01*
X175327Y422006D01*
X176797Y425554D01*
X179512Y428269D01*
X183060Y429739D01*
X186900Y429739D01*
X190448Y428269D01*
X193163Y425554D01*
X194633Y422006D01*
X194633Y403942D01*
X193163Y400394D01*
X190448Y397679D01*
X186900Y396209D01*
X183060Y396209D01*
G37*
%LPD*%
%LPC*%
G36*
X233860Y383509D02*
X233860Y383509D01*
X230312Y384979D01*
X227597Y387694D01*
X226127Y391242D01*
X226127Y409306D01*
X227597Y412854D01*
X230312Y415569D01*
X233860Y417039D01*
X237700Y417039D01*
X241248Y415569D01*
X243963Y412854D01*
X245433Y409306D01*
X245433Y391242D01*
X243963Y387694D01*
X241248Y384979D01*
X237700Y383509D01*
X233860Y383509D01*
G37*
%LPD*%
%LPC*%
G36*
X125308Y41391D02*
X125308Y41391D01*
X123819Y42880D01*
X123819Y56984D01*
X125308Y58473D01*
X129033Y58473D01*
X129057Y58494D01*
X129056Y58496D01*
X129057Y58497D01*
X129057Y58920D01*
X130999Y60862D01*
X131996Y61859D01*
X131996Y61869D01*
X132002Y61874D01*
X131998Y61879D01*
X132001Y61885D01*
X131853Y62242D01*
X131853Y64758D01*
X132816Y67082D01*
X134594Y68860D01*
X136918Y69823D01*
X139434Y69823D01*
X141758Y68860D01*
X143536Y67082D01*
X144499Y64758D01*
X144499Y62242D01*
X143536Y59918D01*
X141758Y58140D01*
X140369Y57565D01*
X140367Y57561D01*
X140363Y57561D01*
X140362Y57552D01*
X140354Y57535D01*
X140361Y57532D01*
X140361Y57524D01*
X140901Y56984D01*
X140901Y42880D01*
X139412Y41391D01*
X125308Y41391D01*
G37*
%LPD*%
%LPC*%
G36*
X317068Y314387D02*
X317068Y314387D01*
X315579Y315876D01*
X315579Y333060D01*
X317068Y334549D01*
X334252Y334549D01*
X335741Y333060D01*
X335741Y315876D01*
X334252Y314387D01*
X317068Y314387D01*
G37*
%LPD*%
%LPC*%
G36*
X120455Y314387D02*
X120455Y314387D01*
X116750Y315922D01*
X113914Y318758D01*
X112379Y322463D01*
X112379Y326473D01*
X113914Y330178D01*
X116750Y333014D01*
X120455Y334549D01*
X124465Y334549D01*
X128170Y333014D01*
X131006Y330178D01*
X132541Y326473D01*
X132541Y322463D01*
X131006Y318758D01*
X128170Y315922D01*
X124465Y314387D01*
X120455Y314387D01*
G37*
%LPD*%
%LPC*%
G36*
X43084Y293356D02*
X43084Y293356D01*
X43084Y305753D01*
X53920Y305753D01*
X55855Y305446D01*
X57718Y304841D01*
X59464Y303951D01*
X61048Y302800D01*
X62434Y301414D01*
X63585Y299830D01*
X64475Y298084D01*
X65080Y296221D01*
X65387Y294286D01*
X65387Y293356D01*
X43084Y293356D01*
G37*
%LPD*%
%LPC*%
G36*
X20681Y293356D02*
X20681Y293356D01*
X20681Y294286D01*
X20708Y294457D01*
X20712Y294481D01*
X20712Y294482D01*
X20716Y294506D01*
X20720Y294531D01*
X20724Y294555D01*
X20728Y294580D01*
X20732Y294605D01*
X20736Y294629D01*
X20740Y294654D01*
X20744Y294679D01*
X20747Y294703D01*
X20751Y294728D01*
X20755Y294753D01*
X20759Y294777D01*
X20763Y294802D01*
X20767Y294827D01*
X20771Y294851D01*
X20775Y294876D01*
X20779Y294901D01*
X20783Y294925D01*
X20786Y294950D01*
X20787Y294950D01*
X20786Y294950D01*
X20790Y294975D01*
X20794Y294999D01*
X20837Y295270D01*
X20841Y295295D01*
X20845Y295320D01*
X20849Y295344D01*
X20853Y295369D01*
X20857Y295394D01*
X20861Y295418D01*
X20865Y295443D01*
X20868Y295468D01*
X20869Y295468D01*
X20868Y295468D01*
X20872Y295492D01*
X20876Y295517D01*
X20880Y295542D01*
X20884Y295566D01*
X20888Y295591D01*
X20892Y295616D01*
X20896Y295640D01*
X20900Y295665D01*
X20904Y295690D01*
X20908Y295714D01*
X20911Y295739D01*
X20915Y295764D01*
X20919Y295788D01*
X20923Y295813D01*
X20966Y296084D01*
X20970Y296109D01*
X20974Y296133D01*
X20978Y296158D01*
X20982Y296183D01*
X20986Y296207D01*
X20988Y296221D01*
X21593Y298084D01*
X22483Y299830D01*
X23634Y301414D01*
X25020Y302800D01*
X26604Y303951D01*
X28350Y304841D01*
X30213Y305446D01*
X32148Y305753D01*
X42984Y305753D01*
X42984Y293356D01*
X20681Y293356D01*
G37*
%LPD*%
%LPC*%
G36*
X43084Y280859D02*
X43084Y280859D01*
X43084Y293256D01*
X65387Y293256D01*
X65387Y292326D01*
X65374Y292244D01*
X65370Y292219D01*
X65366Y292195D01*
X65362Y292170D01*
X65358Y292145D01*
X65354Y292121D01*
X65350Y292096D01*
X65346Y292071D01*
X65342Y292047D01*
X65339Y292022D01*
X65335Y291997D01*
X65331Y291973D01*
X65327Y291948D01*
X65323Y291923D01*
X65319Y291899D01*
X65315Y291874D01*
X65311Y291849D01*
X65307Y291825D01*
X65303Y291800D01*
X65299Y291776D01*
X65299Y291775D01*
X65296Y291751D01*
X65292Y291726D01*
X65288Y291702D01*
X65288Y291701D01*
X65245Y291430D01*
X65241Y291406D01*
X65237Y291381D01*
X65233Y291356D01*
X65229Y291332D01*
X65225Y291307D01*
X65221Y291282D01*
X65217Y291258D01*
X65214Y291233D01*
X65210Y291208D01*
X65206Y291184D01*
X65202Y291159D01*
X65198Y291134D01*
X65194Y291110D01*
X65190Y291085D01*
X65186Y291060D01*
X65182Y291036D01*
X65178Y291011D01*
X65175Y290987D01*
X65174Y290986D01*
X65175Y290986D01*
X65171Y290962D01*
X65167Y290937D01*
X65163Y290913D01*
X65163Y290912D01*
X65159Y290888D01*
X65155Y290863D01*
X65112Y290592D01*
X65108Y290567D01*
X65104Y290543D01*
X65100Y290518D01*
X65096Y290493D01*
X65093Y290469D01*
X65092Y290469D01*
X65093Y290469D01*
X65089Y290444D01*
X65085Y290419D01*
X65081Y290395D01*
X65080Y290391D01*
X64475Y288528D01*
X63585Y286782D01*
X62434Y285198D01*
X61048Y283812D01*
X59464Y282661D01*
X57718Y281771D01*
X55855Y281166D01*
X53920Y280859D01*
X43084Y280859D01*
G37*
%LPD*%
%LPC*%
G36*
X32148Y280859D02*
X32148Y280859D01*
X30213Y281166D01*
X28350Y281771D01*
X26604Y282661D01*
X25020Y283812D01*
X23634Y285198D01*
X22483Y286782D01*
X21593Y288528D01*
X20988Y290391D01*
X20681Y292326D01*
X20681Y293256D01*
X42984Y293256D01*
X42984Y280859D01*
X32148Y280859D01*
G37*
%LPD*%
%LPC*%
G36*
X26742Y84426D02*
X26742Y84426D01*
X26742Y94457D01*
X35225Y94457D01*
X37172Y94069D01*
X39007Y93309D01*
X40658Y92206D01*
X42062Y90802D01*
X43165Y89151D01*
X43925Y87316D01*
X44313Y85369D01*
X44313Y84426D01*
X26742Y84426D01*
G37*
%LPD*%
%LPC*%
G36*
X9071Y84426D02*
X9071Y84426D01*
X9071Y85369D01*
X9459Y87316D01*
X10219Y89151D01*
X11322Y90802D01*
X12726Y92206D01*
X14377Y93309D01*
X16212Y94069D01*
X18159Y94457D01*
X26642Y94457D01*
X26642Y84426D01*
X9071Y84426D01*
G37*
%LPD*%
%LPC*%
G36*
X26742Y74295D02*
X26742Y74295D01*
X26742Y84326D01*
X44313Y84326D01*
X44313Y83383D01*
X43925Y81436D01*
X43165Y79601D01*
X42062Y77950D01*
X40658Y76546D01*
X39007Y75443D01*
X37172Y74683D01*
X35225Y74295D01*
X26742Y74295D01*
G37*
%LPD*%
%LPC*%
G36*
X18159Y74295D02*
X18159Y74295D01*
X16212Y74683D01*
X14377Y75443D01*
X12726Y76546D01*
X11322Y77950D01*
X10219Y79601D01*
X9459Y81436D01*
X9071Y83383D01*
X9071Y84326D01*
X26642Y84326D01*
X26642Y74295D01*
X18159Y74295D01*
G37*
%LPD*%
%LPC*%
G36*
X110822Y22402D02*
X110822Y22402D01*
X110822Y32393D01*
X122607Y32393D01*
X123253Y32220D01*
X123832Y31885D01*
X124305Y31412D01*
X124640Y30833D01*
X124813Y30187D01*
X124813Y22402D01*
X110822Y22402D01*
G37*
%LPD*%
%LPC*%
G36*
X96731Y22402D02*
X96731Y22402D01*
X96731Y30187D01*
X96904Y30833D01*
X97239Y31412D01*
X97712Y31885D01*
X98291Y32220D01*
X98937Y32393D01*
X110722Y32393D01*
X110722Y22402D01*
X96731Y22402D01*
G37*
%LPD*%
%LPC*%
G36*
X110822Y12311D02*
X110822Y12311D01*
X110822Y22302D01*
X124813Y22302D01*
X124813Y14517D01*
X124640Y13871D01*
X124305Y13292D01*
X123832Y12819D01*
X123253Y12484D01*
X122607Y12311D01*
X110822Y12311D01*
G37*
%LPD*%
%LPC*%
G36*
X98937Y12311D02*
X98937Y12311D01*
X98291Y12484D01*
X97712Y12819D01*
X97239Y13292D01*
X96904Y13871D01*
X96731Y14517D01*
X96731Y22302D01*
X110722Y22302D01*
X110722Y12311D01*
X98937Y12311D01*
G37*
%LPD*%
%LPC*%
G36*
X209460Y179550D02*
X209460Y179550D01*
X209460Y189450D01*
X219360Y189450D01*
X219360Y179550D01*
X209460Y179550D01*
G37*
%LPD*%
%LPC*%
G36*
X219460Y179550D02*
X219460Y179550D01*
X219460Y189450D01*
X229360Y189450D01*
X229360Y179550D01*
X219460Y179550D01*
G37*
%LPD*%
%LPC*%
G36*
X209460Y169550D02*
X209460Y169550D01*
X209460Y179450D01*
X219360Y179450D01*
X219360Y169550D01*
X209460Y169550D01*
G37*
%LPD*%
%LPC*%
G36*
X219460Y169550D02*
X219460Y169550D01*
X219460Y179450D01*
X229360Y179450D01*
X229360Y169550D01*
X219460Y169550D01*
G37*
%LPD*%
%LPC*%
G36*
X229460Y169550D02*
X229460Y169550D01*
X229460Y179450D01*
X239360Y179450D01*
X239360Y169550D01*
X229460Y169550D01*
G37*
%LPD*%
%LPC*%
G36*
X229460Y179550D02*
X229460Y179550D01*
X229460Y189450D01*
X239360Y189450D01*
X239360Y179550D01*
X229460Y179550D01*
G37*
%LPD*%
%LPC*%
G36*
X209460Y159550D02*
X209460Y159550D01*
X209460Y169450D01*
X219360Y169450D01*
X219360Y159550D01*
X209460Y159550D01*
G37*
%LPD*%
%LPC*%
G36*
X219460Y159550D02*
X219460Y159550D01*
X219460Y169450D01*
X229360Y169450D01*
X229360Y159550D01*
X219460Y159550D01*
G37*
%LPD*%
%LPC*%
G36*
X229460Y159550D02*
X229460Y159550D01*
X229460Y169450D01*
X239360Y169450D01*
X239360Y159550D01*
X229460Y159550D01*
G37*
%LPD*%
%LPC*%
G36*
X153410Y49982D02*
X153410Y49982D01*
X153410Y58473D01*
X159695Y58473D01*
X160341Y58300D01*
X160920Y57965D01*
X161393Y57492D01*
X161728Y56913D01*
X161901Y56267D01*
X161901Y49982D01*
X153410Y49982D01*
G37*
%LPD*%
%LPC*%
G36*
X144819Y49982D02*
X144819Y49982D01*
X144819Y56267D01*
X144992Y56913D01*
X145327Y57492D01*
X145800Y57965D01*
X146379Y58300D01*
X147025Y58473D01*
X153310Y58473D01*
X153310Y49982D01*
X144819Y49982D01*
G37*
%LPD*%
%LPC*%
G36*
X153410Y41391D02*
X153410Y41391D01*
X153410Y49882D01*
X161901Y49882D01*
X161901Y43597D01*
X161728Y42951D01*
X161393Y42372D01*
X160920Y41899D01*
X160341Y41564D01*
X159695Y41391D01*
X153410Y41391D01*
G37*
%LPD*%
%LPC*%
G36*
X147025Y41391D02*
X147025Y41391D01*
X146379Y41564D01*
X145800Y41899D01*
X145327Y42372D01*
X144992Y42951D01*
X144819Y43597D01*
X144819Y49882D01*
X153310Y49882D01*
X153310Y41391D01*
X147025Y41391D01*
G37*
%LPD*%
%LPC*%
G36*
X229460Y189550D02*
X229460Y189550D01*
X229460Y196081D01*
X230058Y196081D01*
X231330Y195828D01*
X232527Y195332D01*
X233605Y194612D01*
X234393Y193824D01*
X234425Y193822D01*
X234425Y193824D01*
X234427Y193824D01*
X235215Y194612D01*
X236293Y195332D01*
X237490Y195828D01*
X238762Y196081D01*
X239360Y196081D01*
X239360Y189550D01*
X229460Y189550D01*
G37*
%LPD*%
%LPC*%
G36*
X209460Y189550D02*
X209460Y189550D01*
X209460Y196081D01*
X210058Y196081D01*
X211330Y195828D01*
X212527Y195332D01*
X213605Y194612D01*
X214393Y193824D01*
X214425Y193822D01*
X214425Y193824D01*
X214427Y193824D01*
X215215Y194612D01*
X216293Y195332D01*
X217490Y195828D01*
X218762Y196081D01*
X219360Y196081D01*
X219360Y189550D01*
X209460Y189550D01*
G37*
%LPD*%
%LPC*%
G36*
X219460Y189550D02*
X219460Y189550D01*
X219460Y196081D01*
X220058Y196081D01*
X221330Y195828D01*
X222527Y195332D01*
X223605Y194612D01*
X224393Y193824D01*
X224425Y193822D01*
X224425Y193824D01*
X224427Y193824D01*
X225215Y194612D01*
X226293Y195332D01*
X227490Y195828D01*
X228762Y196081D01*
X229360Y196081D01*
X229360Y189550D01*
X219460Y189550D01*
G37*
%LPD*%
%LPC*%
G36*
X239460Y169550D02*
X239460Y169550D01*
X239460Y179450D01*
X245991Y179450D01*
X245991Y178852D01*
X245738Y177580D01*
X245242Y176383D01*
X244522Y175305D01*
X243734Y174517D01*
X243732Y174485D01*
X243734Y174485D01*
X243734Y174483D01*
X244522Y173695D01*
X245242Y172617D01*
X245738Y171420D01*
X245991Y170148D01*
X245991Y169550D01*
X239460Y169550D01*
G37*
%LPD*%
%LPC*%
G36*
X239460Y179550D02*
X239460Y179550D01*
X239460Y189450D01*
X245991Y189450D01*
X245991Y188852D01*
X245738Y187580D01*
X245242Y186383D01*
X244522Y185305D01*
X243734Y184517D01*
X243732Y184485D01*
X243734Y184485D01*
X243734Y184483D01*
X244522Y183695D01*
X245242Y182617D01*
X245738Y181420D01*
X245991Y180148D01*
X245991Y179550D01*
X239460Y179550D01*
G37*
%LPD*%
%LPC*%
G36*
X202829Y179550D02*
X202829Y179550D01*
X202829Y180148D01*
X203082Y181420D01*
X203578Y182617D01*
X204298Y183695D01*
X205086Y184483D01*
X205088Y184515D01*
X205086Y184515D01*
X205086Y184517D01*
X204298Y185305D01*
X203578Y186383D01*
X203082Y187580D01*
X202829Y188852D01*
X202829Y189450D01*
X209360Y189450D01*
X209360Y179550D01*
X202829Y179550D01*
G37*
%LPD*%
%LPC*%
G36*
X202829Y169550D02*
X202829Y169550D01*
X202829Y170148D01*
X203082Y171420D01*
X203578Y172617D01*
X204298Y173695D01*
X205086Y174483D01*
X205088Y174515D01*
X205086Y174515D01*
X205086Y174517D01*
X204298Y175305D01*
X203578Y176383D01*
X203082Y177580D01*
X202829Y178852D01*
X202829Y179450D01*
X209360Y179450D01*
X209360Y169550D01*
X202829Y169550D01*
G37*
%LPD*%
%LPC*%
G36*
X202829Y159550D02*
X202829Y159550D01*
X202829Y160148D01*
X203082Y161420D01*
X203578Y162617D01*
X204298Y163695D01*
X205086Y164483D01*
X205087Y164491D01*
X205090Y164494D01*
X205087Y164497D01*
X205088Y164515D01*
X205086Y164515D01*
X205086Y164517D01*
X204298Y165305D01*
X203578Y166383D01*
X203082Y167580D01*
X202829Y168852D01*
X202829Y169450D01*
X209360Y169450D01*
X209360Y159550D01*
X202829Y159550D01*
G37*
%LPD*%
%LPC*%
G36*
X16038Y18342D02*
X16038Y18342D01*
X16038Y27183D01*
X20006Y27183D01*
X20652Y27010D01*
X21231Y26675D01*
X21704Y26202D01*
X22039Y25623D01*
X22212Y24977D01*
X22212Y18342D01*
X16038Y18342D01*
G37*
%LPD*%
%LPC*%
G36*
X9764Y18342D02*
X9764Y18342D01*
X9764Y24977D01*
X9937Y25623D01*
X10272Y26202D01*
X10745Y26675D01*
X11324Y27010D01*
X11970Y27183D01*
X15938Y27183D01*
X15938Y18342D01*
X9764Y18342D01*
G37*
%LPD*%
%LPC*%
G36*
X16038Y9401D02*
X16038Y9401D01*
X16038Y18242D01*
X22212Y18242D01*
X22212Y11607D01*
X22039Y10961D01*
X21704Y10382D01*
X21231Y9909D01*
X20652Y9574D01*
X20006Y9401D01*
X16038Y9401D01*
G37*
%LPD*%
%LPC*%
G36*
X11970Y9401D02*
X11970Y9401D01*
X11324Y9574D01*
X10745Y9909D01*
X10272Y10382D01*
X9937Y10961D01*
X9764Y11607D01*
X9764Y18242D01*
X15938Y18242D01*
X15938Y9401D01*
X11970Y9401D01*
G37*
%LPD*%
%LPC*%
G36*
X239460Y189550D02*
X239460Y189550D01*
X239460Y196081D01*
X240058Y196081D01*
X241330Y195828D01*
X242527Y195332D01*
X243605Y194612D01*
X244522Y193695D01*
X245242Y192617D01*
X245738Y191420D01*
X245991Y190148D01*
X245991Y189550D01*
X239460Y189550D01*
G37*
%LPD*%
%LPC*%
G36*
X202829Y189550D02*
X202829Y189550D01*
X202829Y190148D01*
X203082Y191420D01*
X203578Y192617D01*
X204298Y193695D01*
X205215Y194612D01*
X206293Y195332D01*
X207490Y195828D01*
X208762Y196081D01*
X209360Y196081D01*
X209360Y189550D01*
X202829Y189550D01*
G37*
%LPD*%
%LPC*%
G36*
X209409Y179499D02*
X209409Y179499D01*
X209409Y179501D01*
X209411Y179501D01*
X209411Y179499D01*
X209409Y179499D01*
G37*
%LPD*%
%LPC*%
G36*
X209409Y169499D02*
X209409Y169499D01*
X209409Y169501D01*
X209411Y169501D01*
X209411Y169499D01*
X209409Y169499D01*
G37*
%LPD*%
%LPC*%
G36*
X239409Y169499D02*
X239409Y169499D01*
X239409Y169501D01*
X239411Y169501D01*
X239411Y169499D01*
X239409Y169499D01*
G37*
%LPD*%
%LPC*%
G36*
X43033Y293305D02*
X43033Y293305D01*
X43033Y293307D01*
X43035Y293307D01*
X43035Y293305D01*
X43033Y293305D01*
G37*
%LPD*%
%LPC*%
G36*
X239409Y189499D02*
X239409Y189499D01*
X239409Y189501D01*
X239411Y189501D01*
X239411Y189499D01*
X239409Y189499D01*
G37*
%LPD*%
%LPC*%
G36*
X229409Y189499D02*
X229409Y189499D01*
X229409Y189501D01*
X229411Y189501D01*
X229411Y189499D01*
X229409Y189499D01*
G37*
%LPD*%
%LPC*%
G36*
X219409Y189499D02*
X219409Y189499D01*
X219409Y189501D01*
X219411Y189501D01*
X219411Y189499D01*
X219409Y189499D01*
G37*
%LPD*%
%LPC*%
G36*
X209409Y189499D02*
X209409Y189499D01*
X209409Y189501D01*
X209411Y189501D01*
X209411Y189499D01*
X209409Y189499D01*
G37*
%LPD*%
%LPC*%
G36*
X219409Y179499D02*
X219409Y179499D01*
X219409Y179501D01*
X219411Y179501D01*
X219411Y179499D01*
X219409Y179499D01*
G37*
%LPD*%
%LPC*%
G36*
X219409Y169499D02*
X219409Y169499D01*
X219409Y169501D01*
X219411Y169501D01*
X219411Y169499D01*
X219409Y169499D01*
G37*
%LPD*%
%LPC*%
G36*
X229409Y169499D02*
X229409Y169499D01*
X229409Y169501D01*
X229411Y169501D01*
X229411Y169499D01*
X229409Y169499D01*
G37*
%LPD*%
%LPC*%
G36*
X229409Y179499D02*
X229409Y179499D01*
X229409Y179501D01*
X229411Y179501D01*
X229411Y179499D01*
X229409Y179499D01*
G37*
%LPD*%
%LPC*%
G36*
X239409Y179499D02*
X239409Y179499D01*
X239409Y179501D01*
X239411Y179501D01*
X239411Y179499D01*
X239409Y179499D01*
G37*
%LPD*%
%LPC*%
G36*
X26691Y84375D02*
X26691Y84375D01*
X26691Y84377D01*
X26693Y84377D01*
X26693Y84375D01*
X26691Y84375D01*
G37*
%LPD*%
%LPC*%
G36*
X153359Y49931D02*
X153359Y49931D01*
X153359Y49933D01*
X153361Y49933D01*
X153361Y49931D01*
X153359Y49931D01*
G37*
%LPD*%
%LPC*%
G36*
X15987Y18291D02*
X15987Y18291D01*
X15987Y18293D01*
X15989Y18293D01*
X15989Y18291D01*
X15987Y18291D01*
G37*
%LPD*%
%LPC*%
G36*
X110771Y22351D02*
X110771Y22351D01*
X110771Y22353D01*
X110773Y22353D01*
X110773Y22351D01*
X110771Y22351D01*
G37*
%LPD*%
D10*
X122460Y324468D03*
X147860Y324468D03*
X249460Y324468D03*
D11*
X325660Y324468D03*
D12*
X153360Y49932D03*
X132360Y49932D03*
D13*
X313152Y136376D02*
X328232Y136376D01*
X328232Y186376D02*
X313152Y186376D01*
X34232Y84376D02*
X19152Y84376D01*
X19152Y238376D02*
X34232Y238376D01*
D14*
X33128Y293306D02*
X52940Y293306D01*
X52940Y343598D02*
X33128Y343598D01*
D15*
X280175Y394076D03*
X322949Y419476D03*
D16*
X235780Y407386D02*
X235780Y393162D01*
X184980Y405862D02*
X184980Y420086D01*
D17*
X219410Y179500D03*
X219410Y169500D03*
X229410Y169500D03*
X229410Y179500D03*
X229410Y189500D03*
X219410Y189500D03*
X209410Y189500D03*
X209410Y179500D03*
X209410Y169500D03*
X209410Y159500D03*
X219410Y159500D03*
X229410Y159500D03*
X239410Y159500D03*
X239410Y169500D03*
X239410Y179500D03*
X239410Y189500D03*
D18*
X85832Y46760D03*
X101072Y46760D03*
D14*
X28314Y397864D02*
X28314Y417676D01*
X78352Y417676D02*
X78352Y397864D01*
X128390Y397864D02*
X128390Y417676D01*
D19*
X120542Y295654D02*
X120542Y277874D01*
X329142Y277874D02*
X329142Y295654D01*
D20*
X15988Y18292D03*
X15988Y46232D03*
X28688Y18292D03*
X28688Y46232D03*
X41388Y18292D03*
X41388Y46232D03*
X54088Y18292D03*
X54088Y46232D03*
X66788Y18292D03*
X66788Y46232D03*
D21*
X177772Y22352D03*
X110772Y22352D03*
D22*
X235204Y65532D03*
X252984Y66040D03*
X340868Y65532D03*
X323596Y65532D03*
X306832Y65532D03*
X288544Y65532D03*
X270764Y65532D03*
X235204Y76708D03*
X261620Y76200D03*
X279400Y76200D03*
X297180Y76200D03*
X314960Y76200D03*
X331724Y76708D03*
X234696Y87884D03*
X252476Y88392D03*
X340360Y87884D03*
X323088Y87884D03*
X306324Y87884D03*
X288036Y87884D03*
X270256Y87884D03*
X242824Y99060D03*
X251968Y102616D03*
X283464Y101092D03*
X296672Y98552D03*
X314452Y98552D03*
X331216Y99060D03*
X295656Y111252D03*
X308102Y115316D03*
X323088Y112522D03*
X338074Y112522D03*
X296926Y125730D03*
X288798Y151638D03*
X288290Y137922D03*
X245364Y77216D03*
X214884Y64516D03*
X214376Y75184D03*
X203454Y61722D03*
X203708Y70104D03*
X185928Y37592D03*
X185928Y52832D03*
X185928Y66040D03*
X190500Y77216D03*
X187452Y88900D03*
X214376Y93980D03*
X201168Y93980D03*
X191516Y101600D03*
X177292Y100584D03*
X85090Y123952D03*
X13208Y118364D03*
X65024Y98044D03*
X181864Y115570D03*
X163068Y150622D03*
X160528Y202692D03*
X200914Y213614D03*
X264160Y206756D03*
X265430Y189992D03*
X273050Y199136D03*
X256032Y134620D03*
X168402Y39370D03*
X168148Y53086D03*
X167640Y66548D03*
X166878Y78486D03*
X156718Y87630D03*
X148082Y99314D03*
X147320Y82296D03*
X151130Y67818D03*
X128270Y98552D03*
X116078Y94742D03*
X112014Y78994D03*
X127508Y80264D03*
X118364Y65786D03*
X117348Y48768D03*
X137160Y32512D03*
X136652Y14478D03*
X115570Y134620D03*
X88646Y66294D03*
X79756Y100076D03*
X92964Y136906D03*
X91948Y151384D03*
X79248Y150876D03*
X77216Y137414D03*
X38100Y117348D03*
X13208Y100584D03*
X39624Y100330D03*
X87884Y14986D03*
X152400Y22352D03*
X184150Y7620D03*
X78994Y172466D03*
X78994Y186182D03*
X96774Y186182D03*
X97282Y173990D03*
X292100Y197358D03*
X291846Y182118D03*
X291338Y163576D03*
X289306Y214122D03*
X282448Y225806D03*
X270002Y233172D03*
X257810Y240030D03*
X242824Y243586D03*
X223012Y244348D03*
X169672Y228600D03*
X183642Y245110D03*
X202692Y244856D03*
X162052Y246380D03*
X130302Y250190D03*
X112014Y250952D03*
X115824Y231140D03*
X97028Y211836D03*
X123952Y202184D03*
X146812Y202692D03*
X136906Y191262D03*
X85090Y246126D03*
X80518Y227584D03*
X49276Y226060D03*
X55626Y206248D03*
X76708Y209804D03*
X51308Y253746D03*
X16510Y254000D03*
X17018Y222758D03*
X25400Y108458D03*
X116586Y191516D03*
D23*
X153670Y182626D03*
D24*
X138176Y167132D01*
D23*
X138176Y119154D03*
X138176Y63500D03*
D24*
X138176Y63368D01*
X132360Y57552D01*
X132360Y49932D01*
X138176Y119154D02*
X138176Y167132D01*
D23*
X218440Y217932D03*
D24*
X214630Y221742D01*
X196596Y221742D01*
X190246Y215392D01*
X190246Y163830D01*
X175768Y149352D01*
X160020Y133604D01*
X160020Y126238D01*
D23*
X160020Y126238D03*
X159766Y101092D03*
D24*
X177772Y83086D02*
X177772Y22352D01*
X177772Y83086D02*
X159766Y101092D01*
D25*
X175768Y149352D03*
D24*
X15988Y56628D02*
X15988Y46232D01*
X23114Y63754D02*
X23114Y64262D01*
X23114Y63754D02*
X15988Y56628D01*
D23*
X23114Y64262D03*
X64262Y110744D03*
D26*
X169436Y110744D02*
X170452Y111760D01*
X169436Y110744D02*
X103124Y110744D01*
X99060Y110744D01*
X101072Y110744D02*
X91948Y110744D01*
X64262Y110744D01*
D22*
X258064Y217200D03*
D26*
X276068Y217200D01*
X281178Y212090D01*
D22*
X181776Y224536D03*
D26*
X184062Y226822D01*
X248442Y226822D02*
X258064Y217200D01*
X248442Y226822D02*
X184062Y226822D01*
D22*
X180078Y191770D03*
D26*
X182110Y224202D02*
X181776Y224536D01*
D22*
X238379Y130629D03*
X267716Y150094D03*
D23*
X170452Y111760D03*
D26*
X244602Y146812D02*
X247904Y150114D01*
X267696Y150114D01*
X267716Y150094D01*
X173500Y131590D02*
X173500Y114554D01*
X170706Y111760D01*
X170452Y111760D01*
X188722Y146812D02*
X237998Y146812D01*
X244602Y146812D01*
X188722Y146812D02*
X173500Y131590D01*
X238379Y130629D02*
X238379Y146431D01*
X237998Y146812D01*
X267716Y150094D02*
X281178Y163556D01*
X281178Y212090D01*
X180078Y222838D02*
X180078Y191770D01*
X180078Y222838D02*
X181776Y224536D01*
X101072Y110744D02*
X101072Y46760D01*
D24*
X103124Y110744D02*
X91948Y110744D01*
D27*
X59052Y238376D02*
X26692Y238376D01*
X81280Y327152D02*
X100584Y346456D01*
X140462Y346456D01*
X147860Y339058D02*
X147860Y324468D01*
X81280Y260604D02*
X59052Y238376D01*
X81280Y260604D02*
X81280Y327152D01*
X140462Y346456D02*
X147860Y339058D01*
X128390Y377578D02*
X128390Y407770D01*
X153670Y352298D02*
X235966Y352298D01*
X249460Y338804D01*
X249460Y324468D01*
X153670Y352298D02*
X128390Y377578D01*
X342646Y273260D02*
X342646Y147154D01*
X331868Y136376D01*
X320692Y136376D01*
X342646Y273260D02*
X329142Y286764D01*
X236980Y286764D02*
X120542Y286764D01*
X275336Y389237D02*
X280175Y394076D01*
X275336Y325120D02*
X236980Y286764D01*
X275336Y325120D02*
X275336Y389237D01*
D24*
X28688Y18800D02*
X28688Y18292D01*
X28688Y18800D02*
X47752Y37864D01*
X47752Y62484D02*
X48895Y63627D01*
X48768Y63754D01*
D23*
X48768Y63754D03*
D24*
X47752Y62484D02*
X47752Y37864D01*
X28688Y46232D02*
X28688Y56642D01*
X35800Y63754D01*
D23*
X35800Y63754D03*
D24*
X54088Y21576D02*
X54088Y18292D01*
X54088Y21576D02*
X60452Y27940D01*
D23*
X68072Y62738D03*
X146558Y126238D03*
D24*
X146558Y119126D02*
X148844Y116840D01*
X146558Y119126D02*
X146558Y126238D01*
X200672Y152158D02*
X242451Y152158D01*
X248789Y158496D01*
X68072Y62738D02*
X60452Y55118D01*
X60452Y27940D01*
X148844Y116840D02*
X164846Y116840D01*
X200279Y151765D02*
X200672Y152158D01*
X168275Y120269D02*
X164846Y116840D01*
X248789Y158496D02*
X248789Y167001D01*
X261366Y179578D01*
X273050Y179578D01*
D23*
X273050Y179578D03*
D24*
X200279Y151765D02*
X184023Y151765D01*
X168275Y136017D02*
X168275Y120269D01*
X168275Y136017D02*
X184023Y151765D01*
D26*
X73660Y18292D02*
X66788Y18292D01*
X73660Y18292D02*
X85832Y30464D01*
X85832Y46760D01*
M02*
