G04 EAGLE Gerber RS-274X export*
G75*
%MOMM*%
%FSLAX34Y34*%
%LPD*%
%INSilkscreen Bottom*%
%IPPOS*%
%AMOC8*
5,1,8,0,0,1.08239X$1,22.5*%
G01*
%ADD10C,0.100000*%
%ADD11C,0.127000*%
%ADD12C,0.254000*%
%ADD13C,0.152400*%


D10*
X227610Y122000D02*
X231610Y122000D01*
X231610Y123000D01*
X231610Y124000D02*
X231610Y130000D01*
X231610Y131000D02*
X231610Y132000D01*
X227610Y132000D01*
X227610Y131000D01*
X227610Y123000D02*
X227610Y122000D01*
X227610Y130000D02*
X227610Y131000D01*
X231610Y131000D01*
X231610Y130000D01*
X227610Y130000D01*
X227610Y124000D01*
X227610Y123000D01*
X231610Y123000D01*
X231610Y124000D01*
X227610Y124000D01*
X221610Y132000D02*
X217610Y132000D01*
X217610Y131000D01*
X217610Y130000D02*
X217610Y124000D01*
X217610Y123000D02*
X217610Y122000D01*
X221610Y122000D01*
X221610Y123000D01*
X221610Y131000D02*
X221610Y132000D01*
X221610Y124000D02*
X221610Y123000D01*
X217610Y123000D01*
X217610Y124000D01*
X221610Y124000D01*
X221610Y130000D01*
X221610Y131000D01*
X217610Y131000D01*
X217610Y130000D01*
X221610Y130000D01*
X248360Y115050D02*
X248360Y111050D01*
X248360Y115050D02*
X247360Y115050D01*
X246360Y115050D02*
X240360Y115050D01*
X239360Y115050D02*
X238360Y115050D01*
X238360Y111050D01*
X239360Y111050D01*
X247360Y111050D02*
X248360Y111050D01*
X240360Y111050D02*
X239360Y111050D01*
X239360Y115050D01*
X240360Y115050D01*
X240360Y111050D01*
X246360Y111050D01*
X247360Y111050D01*
X247360Y115050D01*
X246360Y115050D01*
X246360Y111050D01*
X221610Y113250D02*
X217610Y113250D01*
X217610Y112250D01*
X217610Y111250D02*
X217610Y105250D01*
X217610Y104250D02*
X217610Y103250D01*
X221610Y103250D01*
X221610Y104250D01*
X221610Y112250D02*
X221610Y113250D01*
X221610Y105250D02*
X221610Y104250D01*
X217610Y104250D01*
X217610Y105250D01*
X221610Y105250D01*
X221610Y111250D01*
X221610Y112250D01*
X217610Y112250D01*
X217610Y111250D01*
X221610Y111250D01*
X210860Y105450D02*
X210860Y101450D01*
X210860Y105450D02*
X209860Y105450D01*
X208860Y105450D02*
X202860Y105450D01*
X201860Y105450D02*
X200860Y105450D01*
X200860Y101450D01*
X201860Y101450D01*
X209860Y101450D02*
X210860Y101450D01*
X202860Y101450D02*
X201860Y101450D01*
X201860Y105450D01*
X202860Y105450D01*
X202860Y101450D01*
X208860Y101450D01*
X209860Y101450D01*
X209860Y105450D01*
X208860Y105450D01*
X208860Y101450D01*
X200860Y86700D02*
X200860Y82700D01*
X201860Y82700D01*
X202860Y82700D02*
X208860Y82700D01*
X209860Y82700D02*
X210860Y82700D01*
X210860Y86700D01*
X209860Y86700D01*
X201860Y86700D02*
X200860Y86700D01*
X208860Y86700D02*
X209860Y86700D01*
X209860Y82700D01*
X208860Y82700D01*
X208860Y86700D01*
X202860Y86700D01*
X201860Y86700D01*
X201860Y82700D01*
X202860Y82700D01*
X202860Y86700D01*
X200860Y111050D02*
X200860Y115050D01*
X200860Y111050D02*
X201860Y111050D01*
X202860Y111050D02*
X208860Y111050D01*
X209860Y111050D02*
X210860Y111050D01*
X210860Y115050D01*
X209860Y115050D01*
X201860Y115050D02*
X200860Y115050D01*
X208860Y115050D02*
X209860Y115050D01*
X209860Y111050D01*
X208860Y111050D01*
X208860Y115050D01*
X202860Y115050D01*
X201860Y115050D01*
X201860Y111050D01*
X202860Y111050D01*
X202860Y115050D01*
X227610Y103250D02*
X231610Y103250D01*
X231610Y104250D01*
X231610Y105250D02*
X231610Y111250D01*
X231610Y112250D02*
X231610Y113250D01*
X227610Y113250D01*
X227610Y112250D01*
X227610Y104250D02*
X227610Y103250D01*
X227610Y111250D02*
X227610Y112250D01*
X231610Y112250D01*
X231610Y111250D01*
X227610Y111250D01*
X227610Y105250D01*
X227610Y104250D01*
X231610Y104250D01*
X231610Y105250D01*
X227610Y105250D01*
X268590Y166760D02*
X268590Y170760D01*
X268590Y166760D02*
X269590Y166760D01*
X270590Y166760D02*
X276590Y166760D01*
X277590Y166760D02*
X278590Y166760D01*
X278590Y170760D01*
X277590Y170760D01*
X269590Y170760D02*
X268590Y170760D01*
X276590Y170760D02*
X277590Y170760D01*
X277590Y166760D01*
X276590Y166760D01*
X276590Y170760D01*
X270590Y170760D01*
X269590Y170760D01*
X269590Y166760D01*
X270590Y166760D01*
X270590Y170760D01*
X278590Y160450D02*
X278590Y156450D01*
X278590Y160450D02*
X277590Y160450D01*
X276590Y160450D02*
X270590Y160450D01*
X269590Y160450D02*
X268590Y160450D01*
X268590Y156450D01*
X269590Y156450D01*
X277590Y156450D02*
X278590Y156450D01*
X270590Y156450D02*
X269590Y156450D01*
X269590Y160450D01*
X270590Y160450D01*
X270590Y156450D01*
X276590Y156450D01*
X277590Y156450D01*
X277590Y160450D01*
X276590Y160450D01*
X276590Y156450D01*
X226610Y84500D02*
X222610Y84500D01*
X226610Y84500D02*
X226610Y85500D01*
X226610Y86500D02*
X226610Y92500D01*
X226610Y93500D02*
X226610Y94500D01*
X222610Y94500D01*
X222610Y93500D01*
X222610Y85500D02*
X222610Y84500D01*
X222610Y92500D02*
X222610Y93500D01*
X226610Y93500D01*
X226610Y92500D01*
X222610Y92500D01*
X222610Y86500D01*
X222610Y85500D01*
X226610Y85500D01*
X226610Y86500D01*
X222610Y86500D01*
X222610Y65750D02*
X226610Y65750D01*
X226610Y66750D01*
X226610Y67750D02*
X226610Y73750D01*
X226610Y74750D02*
X226610Y75750D01*
X222610Y75750D01*
X222610Y74750D01*
X222610Y66750D02*
X222610Y65750D01*
X222610Y73750D02*
X222610Y74750D01*
X226610Y74750D01*
X226610Y73750D01*
X222610Y73750D01*
X222610Y67750D01*
X222610Y66750D01*
X226610Y66750D01*
X226610Y67750D01*
X222610Y67750D01*
D11*
X198410Y204500D02*
X197410Y204500D01*
X194410Y201500D01*
X194410Y200500D01*
X194410Y148500D02*
X194410Y144500D01*
X198410Y144500D01*
X250410Y144500D02*
X254410Y144500D01*
X254410Y148500D01*
X254410Y200500D02*
X254410Y204500D01*
X250410Y204500D01*
X199996Y212500D02*
X199998Y212575D01*
X200004Y212649D01*
X200014Y212723D01*
X200027Y212796D01*
X200045Y212869D01*
X200066Y212940D01*
X200091Y213011D01*
X200120Y213080D01*
X200153Y213147D01*
X200189Y213212D01*
X200228Y213276D01*
X200270Y213337D01*
X200316Y213396D01*
X200365Y213453D01*
X200417Y213506D01*
X200471Y213557D01*
X200528Y213606D01*
X200588Y213650D01*
X200650Y213692D01*
X200714Y213731D01*
X200780Y213766D01*
X200847Y213797D01*
X200917Y213825D01*
X200987Y213849D01*
X201059Y213870D01*
X201132Y213886D01*
X201205Y213899D01*
X201280Y213908D01*
X201354Y213913D01*
X201429Y213914D01*
X201503Y213911D01*
X201578Y213904D01*
X201651Y213893D01*
X201725Y213879D01*
X201797Y213860D01*
X201868Y213838D01*
X201938Y213812D01*
X202007Y213782D01*
X202073Y213749D01*
X202138Y213712D01*
X202201Y213672D01*
X202262Y213628D01*
X202320Y213582D01*
X202376Y213532D01*
X202429Y213480D01*
X202480Y213425D01*
X202527Y213367D01*
X202571Y213307D01*
X202612Y213244D01*
X202650Y213180D01*
X202684Y213114D01*
X202715Y213045D01*
X202742Y212976D01*
X202765Y212905D01*
X202784Y212833D01*
X202800Y212760D01*
X202812Y212686D01*
X202820Y212612D01*
X202824Y212537D01*
X202824Y212463D01*
X202820Y212388D01*
X202812Y212314D01*
X202800Y212240D01*
X202784Y212167D01*
X202765Y212095D01*
X202742Y212024D01*
X202715Y211955D01*
X202684Y211886D01*
X202650Y211820D01*
X202612Y211756D01*
X202571Y211693D01*
X202527Y211633D01*
X202480Y211575D01*
X202429Y211520D01*
X202376Y211468D01*
X202320Y211418D01*
X202262Y211372D01*
X202201Y211328D01*
X202138Y211288D01*
X202073Y211251D01*
X202007Y211218D01*
X201938Y211188D01*
X201868Y211162D01*
X201797Y211140D01*
X201725Y211121D01*
X201651Y211107D01*
X201578Y211096D01*
X201503Y211089D01*
X201429Y211086D01*
X201354Y211087D01*
X201280Y211092D01*
X201205Y211101D01*
X201132Y211114D01*
X201059Y211130D01*
X200987Y211151D01*
X200917Y211175D01*
X200847Y211203D01*
X200780Y211234D01*
X200714Y211269D01*
X200650Y211308D01*
X200588Y211350D01*
X200528Y211394D01*
X200471Y211443D01*
X200417Y211494D01*
X200365Y211547D01*
X200316Y211604D01*
X200270Y211663D01*
X200228Y211724D01*
X200189Y211788D01*
X200153Y211853D01*
X200120Y211920D01*
X200091Y211989D01*
X200066Y212060D01*
X200045Y212131D01*
X200027Y212204D01*
X200014Y212277D01*
X200004Y212351D01*
X199998Y212425D01*
X199996Y212500D01*
D12*
X200910Y212500D02*
X200912Y212544D01*
X200918Y212588D01*
X200928Y212631D01*
X200941Y212673D01*
X200958Y212714D01*
X200979Y212753D01*
X201003Y212790D01*
X201030Y212825D01*
X201060Y212857D01*
X201093Y212887D01*
X201129Y212913D01*
X201166Y212937D01*
X201206Y212956D01*
X201247Y212973D01*
X201290Y212985D01*
X201333Y212994D01*
X201377Y212999D01*
X201421Y213000D01*
X201465Y212997D01*
X201509Y212990D01*
X201552Y212979D01*
X201594Y212965D01*
X201634Y212947D01*
X201673Y212925D01*
X201709Y212901D01*
X201743Y212873D01*
X201775Y212842D01*
X201804Y212808D01*
X201830Y212772D01*
X201852Y212734D01*
X201871Y212694D01*
X201886Y212652D01*
X201898Y212610D01*
X201906Y212566D01*
X201910Y212522D01*
X201910Y212478D01*
X201906Y212434D01*
X201898Y212390D01*
X201886Y212348D01*
X201871Y212306D01*
X201852Y212266D01*
X201830Y212228D01*
X201804Y212192D01*
X201775Y212158D01*
X201743Y212127D01*
X201709Y212099D01*
X201673Y212075D01*
X201634Y212053D01*
X201594Y212035D01*
X201552Y212021D01*
X201509Y212010D01*
X201465Y212003D01*
X201421Y212000D01*
X201377Y212001D01*
X201333Y212006D01*
X201290Y212015D01*
X201247Y212027D01*
X201206Y212044D01*
X201166Y212063D01*
X201129Y212087D01*
X201093Y212113D01*
X201060Y212143D01*
X201030Y212175D01*
X201003Y212210D01*
X200979Y212247D01*
X200958Y212286D01*
X200941Y212327D01*
X200928Y212369D01*
X200918Y212412D01*
X200912Y212456D01*
X200910Y212500D01*
D10*
X199280Y122000D02*
X203280Y122000D01*
X203280Y123000D01*
X203280Y124000D02*
X203280Y130000D01*
X203280Y131000D02*
X203280Y132000D01*
X199280Y132000D01*
X199280Y131000D01*
X199280Y123000D02*
X199280Y122000D01*
X199280Y130000D02*
X199280Y131000D01*
X203280Y131000D01*
X203280Y130000D01*
X199280Y130000D01*
X199280Y124000D01*
X199280Y123000D01*
X203280Y123000D01*
X203280Y124000D01*
X199280Y124000D01*
X208480Y122000D02*
X212480Y122000D01*
X212480Y123000D01*
X212480Y124000D02*
X212480Y130000D01*
X212480Y131000D02*
X212480Y132000D01*
X208480Y132000D01*
X208480Y131000D01*
X208480Y123000D02*
X208480Y122000D01*
X208480Y130000D02*
X208480Y131000D01*
X212480Y131000D01*
X212480Y130000D01*
X208480Y130000D01*
X208480Y124000D01*
X208480Y123000D01*
X212480Y123000D01*
X212480Y124000D01*
X208480Y124000D01*
X176750Y122000D02*
X172750Y122000D01*
X176750Y122000D02*
X176750Y123000D01*
X176750Y124000D02*
X176750Y130000D01*
X176750Y131000D02*
X176750Y132000D01*
X172750Y132000D01*
X172750Y131000D01*
X172750Y123000D02*
X172750Y122000D01*
X172750Y130000D02*
X172750Y131000D01*
X176750Y131000D01*
X176750Y130000D01*
X172750Y130000D01*
X172750Y124000D01*
X172750Y123000D01*
X176750Y123000D01*
X176750Y124000D01*
X172750Y124000D01*
X277340Y139700D02*
X277340Y143700D01*
X276340Y143700D01*
X275340Y143700D02*
X269340Y143700D01*
X268340Y143700D02*
X267340Y143700D01*
X267340Y139700D01*
X268340Y139700D01*
X276340Y139700D02*
X277340Y139700D01*
X269340Y139700D02*
X268340Y139700D01*
X268340Y143700D01*
X269340Y143700D01*
X269340Y139700D01*
X275340Y139700D01*
X276340Y139700D01*
X276340Y143700D01*
X275340Y143700D01*
X275340Y139700D01*
X248360Y124320D02*
X248360Y120320D01*
X248360Y124320D02*
X247360Y124320D01*
X246360Y124320D02*
X240360Y124320D01*
X239360Y124320D02*
X238360Y124320D01*
X238360Y120320D01*
X239360Y120320D01*
X247360Y120320D02*
X248360Y120320D01*
X240360Y120320D02*
X239360Y120320D01*
X239360Y124320D01*
X240360Y124320D01*
X240360Y120320D01*
X246360Y120320D01*
X247360Y120320D01*
X247360Y124320D01*
X246360Y124320D01*
X246360Y120320D01*
X246930Y227000D02*
X250930Y227000D01*
X246930Y227000D02*
X246930Y226000D01*
X246930Y225000D02*
X246930Y219000D01*
X246930Y218000D02*
X246930Y217000D01*
X250930Y217000D01*
X250930Y218000D01*
X250930Y226000D02*
X250930Y227000D01*
X250930Y219000D02*
X250930Y218000D01*
X246930Y218000D01*
X246930Y219000D01*
X250930Y219000D01*
X250930Y225000D01*
X250930Y226000D01*
X246930Y226000D01*
X246930Y225000D01*
X250930Y225000D01*
X162150Y194000D02*
X162150Y190000D01*
X163150Y190000D01*
X164150Y190000D02*
X170150Y190000D01*
X171150Y190000D02*
X172150Y190000D01*
X172150Y194000D01*
X171150Y194000D01*
X163150Y194000D02*
X162150Y194000D01*
X170150Y194000D02*
X171150Y194000D01*
X171150Y190000D01*
X170150Y190000D01*
X170150Y194000D01*
X164150Y194000D01*
X163150Y194000D01*
X163150Y190000D01*
X164150Y190000D01*
X164150Y194000D01*
X186210Y132250D02*
X190210Y132250D01*
X186210Y132250D02*
X186210Y131250D01*
X186210Y130250D02*
X186210Y124250D01*
X186210Y123250D02*
X186210Y122250D01*
X190210Y122250D01*
X190210Y123250D01*
X190210Y131250D02*
X190210Y132250D01*
X190210Y124250D02*
X190210Y123250D01*
X186210Y123250D01*
X186210Y124250D01*
X190210Y124250D01*
X190210Y130250D01*
X190210Y131250D01*
X186210Y131250D01*
X186210Y130250D01*
X190210Y130250D01*
X172100Y199320D02*
X172100Y203320D01*
X172100Y199320D02*
X173100Y199320D01*
X174100Y199320D02*
X180100Y199320D01*
X181100Y199320D02*
X182100Y199320D01*
X182100Y203320D01*
X181100Y203320D01*
X173100Y203320D02*
X172100Y203320D01*
X180100Y203320D02*
X181100Y203320D01*
X181100Y199320D01*
X180100Y199320D01*
X180100Y203320D01*
X174100Y203320D01*
X173100Y203320D01*
X173100Y199320D01*
X174100Y199320D01*
X174100Y203320D01*
X272000Y104670D02*
X272000Y100670D01*
X272000Y104670D02*
X271000Y104670D01*
X270000Y104670D02*
X264000Y104670D01*
X263000Y104670D02*
X262000Y104670D01*
X262000Y100670D01*
X263000Y100670D01*
X271000Y100670D02*
X272000Y100670D01*
X264000Y100670D02*
X263000Y100670D01*
X263000Y104670D01*
X264000Y104670D01*
X264000Y100670D01*
X270000Y100670D01*
X271000Y100670D01*
X271000Y104670D01*
X270000Y104670D01*
X270000Y100670D01*
X284270Y118200D02*
X288270Y118200D01*
X288270Y119200D01*
X288270Y120200D02*
X288270Y126200D01*
X288270Y127200D02*
X288270Y128200D01*
X284270Y128200D01*
X284270Y127200D01*
X284270Y119200D02*
X284270Y118200D01*
X284270Y126200D02*
X284270Y127200D01*
X288270Y127200D01*
X288270Y126200D01*
X284270Y126200D01*
X284270Y120200D01*
X284270Y119200D01*
X288270Y119200D01*
X288270Y120200D01*
X284270Y120200D01*
D13*
X170150Y155730D02*
X157150Y155730D01*
X157150Y140730D02*
X170150Y140730D01*
D10*
X167340Y161030D02*
X167340Y165030D01*
X167340Y161030D02*
X168340Y161030D01*
X169340Y161030D02*
X175340Y161030D01*
X176340Y161030D02*
X177340Y161030D01*
X177340Y165030D01*
X176340Y165030D01*
X168340Y165030D02*
X167340Y165030D01*
X175340Y165030D02*
X176340Y165030D01*
X176340Y161030D01*
X175340Y161030D01*
X175340Y165030D01*
X169340Y165030D01*
X168340Y165030D01*
X168340Y161030D01*
X169340Y161030D01*
X169340Y165030D01*
X147930Y165360D02*
X147930Y161360D01*
X148930Y161360D01*
X149930Y161360D02*
X155930Y161360D01*
X156930Y161360D02*
X157930Y161360D01*
X157930Y165360D01*
X156930Y165360D01*
X148930Y165360D02*
X147930Y165360D01*
X155930Y165360D02*
X156930Y165360D01*
X156930Y161360D01*
X155930Y161360D01*
X155930Y165360D01*
X149930Y165360D01*
X148930Y165360D01*
X148930Y161360D01*
X149930Y161360D01*
X149930Y165360D01*
X105020Y125100D02*
X105020Y121100D01*
X105020Y125100D02*
X104020Y125100D01*
X103020Y125100D02*
X97020Y125100D01*
X96020Y125100D02*
X95020Y125100D01*
X95020Y121100D01*
X96020Y121100D01*
X104020Y121100D02*
X105020Y121100D01*
X97020Y121100D02*
X96020Y121100D01*
X96020Y125100D01*
X97020Y125100D01*
X97020Y121100D01*
X103020Y121100D01*
X104020Y121100D01*
X104020Y125100D01*
X103020Y125100D01*
X103020Y121100D01*
X66880Y120950D02*
X66880Y124950D01*
X65880Y124950D01*
X64880Y124950D02*
X58880Y124950D01*
X57880Y124950D02*
X56880Y124950D01*
X56880Y120950D01*
X57880Y120950D01*
X65880Y120950D02*
X66880Y120950D01*
X58880Y120950D02*
X57880Y120950D01*
X57880Y124950D01*
X58880Y124950D01*
X58880Y120950D01*
X64880Y120950D01*
X65880Y120950D01*
X65880Y124950D01*
X64880Y124950D01*
X64880Y120950D01*
X227820Y226900D02*
X231820Y226900D01*
X227820Y226900D02*
X227820Y225900D01*
X227820Y224900D02*
X227820Y218900D01*
X227820Y217900D02*
X227820Y216900D01*
X231820Y216900D01*
X231820Y217900D01*
X231820Y225900D02*
X231820Y226900D01*
X231820Y218900D02*
X231820Y217900D01*
X227820Y217900D01*
X227820Y218900D01*
X231820Y218900D01*
X231820Y224900D01*
X231820Y225900D01*
X227820Y225900D01*
X227820Y224900D01*
X231820Y224900D01*
X181980Y215810D02*
X181980Y211810D01*
X181980Y215810D02*
X180980Y215810D01*
X179980Y215810D02*
X173980Y215810D01*
X172980Y215810D02*
X171980Y215810D01*
X171980Y211810D01*
X172980Y211810D01*
X180980Y211810D02*
X181980Y211810D01*
X173980Y211810D02*
X172980Y211810D01*
X172980Y215810D01*
X173980Y215810D01*
X173980Y211810D01*
X179980Y211810D01*
X180980Y211810D01*
X180980Y215810D01*
X179980Y215810D01*
X179980Y211810D01*
D13*
X106330Y130730D02*
X71730Y130730D01*
X71730Y193210D02*
X106330Y193210D01*
X106330Y130730D01*
X71730Y130730D02*
X71730Y193210D01*
D10*
X237500Y217000D02*
X241500Y217000D01*
X241500Y218000D01*
X241500Y219000D02*
X241500Y225000D01*
X241500Y226000D02*
X241500Y227000D01*
X237500Y227000D01*
X237500Y226000D01*
X237500Y218000D02*
X237500Y217000D01*
X237500Y225000D02*
X237500Y226000D01*
X241500Y226000D01*
X241500Y225000D01*
X237500Y225000D01*
X237500Y219000D01*
X237500Y218000D01*
X241500Y218000D01*
X241500Y219000D01*
X237500Y219000D01*
X172130Y184370D02*
X172130Y180370D01*
X172130Y184370D02*
X171130Y184370D01*
X170130Y184370D02*
X164130Y184370D01*
X163130Y184370D02*
X162130Y184370D01*
X162130Y180370D01*
X163130Y180370D01*
X171130Y180370D02*
X172130Y180370D01*
X164130Y180370D02*
X163130Y180370D01*
X163130Y184370D01*
X164130Y184370D01*
X164130Y180370D01*
X170130Y180370D01*
X171130Y180370D01*
X171130Y184370D01*
X170130Y184370D01*
X170130Y180370D01*
M02*
