G04 EAGLE Gerber RS-274X export*
G75*
%MOMM*%
%FSLAX34Y34*%
%LPD*%
%INSolderpaste Bottom*%
%IPPOS*%
%AMOC8*
5,1,8,0,0,1.08239X$1,22.5*%
G01*
%ADD10R,1.000000X1.400000*%
%ADD11C,0.177000*%
%ADD12R,1.200578X1.200578*%
%ADD13R,1.201197X1.204200*%
%ADD14R,1.201694X1.197459*%
%ADD15R,1.196956X1.207109*%
%ADD16R,1.198988X1.200675*%
%ADD17R,1.197738X1.197738*%
%ADD18R,1.204091X1.204091*%
%ADD19R,1.205759X1.201647*%
%ADD20R,1.201550X1.199331*%
%ADD21C,0.300000*%
%ADD22R,0.750000X0.850000*%
%ADD23R,1.000000X1.800000*%
%ADD24R,1.100000X1.000000*%
%ADD25R,2.006600X1.498600*%
%ADD26R,2.006600X3.810000*%

G36*
X266276Y123563D02*
X266276Y123563D01*
X266333Y123573D01*
X266347Y123584D01*
X266355Y123586D01*
X266364Y123596D01*
X266399Y123621D01*
X268899Y126121D01*
X268927Y126172D01*
X268960Y126220D01*
X268963Y126237D01*
X268967Y126244D01*
X268966Y126257D01*
X268973Y126300D01*
X268973Y131800D01*
X268969Y131815D01*
X268971Y131831D01*
X268950Y131882D01*
X268934Y131935D01*
X268922Y131946D01*
X268916Y131960D01*
X268870Y131992D01*
X268829Y132029D01*
X268813Y132031D01*
X268800Y132040D01*
X268720Y132053D01*
X261720Y132053D01*
X261705Y132049D01*
X261689Y132051D01*
X261638Y132030D01*
X261585Y132014D01*
X261574Y132002D01*
X261560Y131996D01*
X261528Y131950D01*
X261491Y131909D01*
X261489Y131893D01*
X261480Y131880D01*
X261467Y131800D01*
X261467Y123800D01*
X261471Y123785D01*
X261469Y123769D01*
X261490Y123718D01*
X261506Y123665D01*
X261518Y123654D01*
X261524Y123640D01*
X261570Y123608D01*
X261611Y123571D01*
X261627Y123569D01*
X261640Y123560D01*
X261720Y123547D01*
X266220Y123547D01*
X266276Y123563D01*
G37*
D10*
X146400Y249270D03*
X136900Y227270D03*
X155900Y227270D03*
D11*
X227295Y133865D02*
X227295Y129735D01*
X227295Y133865D02*
X231925Y133865D01*
X231925Y129735D01*
X227295Y129735D01*
X227295Y131416D02*
X231925Y131416D01*
X231925Y133097D02*
X227295Y133097D01*
X227295Y124265D02*
X227295Y120135D01*
X227295Y124265D02*
X231925Y124265D01*
X231925Y120135D01*
X227295Y120135D01*
X227295Y121816D02*
X231925Y121816D01*
X231925Y123497D02*
X227295Y123497D01*
X221925Y124265D02*
X221925Y120135D01*
X217295Y120135D01*
X217295Y124265D01*
X221925Y124265D01*
X221925Y121816D02*
X217295Y121816D01*
X217295Y123497D02*
X221925Y123497D01*
X221925Y129735D02*
X221925Y133865D01*
X221925Y129735D02*
X217295Y129735D01*
X217295Y133865D01*
X221925Y133865D01*
X221925Y131416D02*
X217295Y131416D01*
X217295Y133097D02*
X221925Y133097D01*
X236495Y110735D02*
X240625Y110735D01*
X236495Y110735D02*
X236495Y115365D01*
X240625Y115365D01*
X240625Y110735D01*
X240625Y112416D02*
X236495Y112416D01*
X236495Y114097D02*
X240625Y114097D01*
X246095Y110735D02*
X250225Y110735D01*
X246095Y110735D02*
X246095Y115365D01*
X250225Y115365D01*
X250225Y110735D01*
X250225Y112416D02*
X246095Y112416D01*
X246095Y114097D02*
X250225Y114097D01*
X221925Y105515D02*
X221925Y101385D01*
X217295Y101385D01*
X217295Y105515D01*
X221925Y105515D01*
X221925Y103066D02*
X217295Y103066D01*
X217295Y104747D02*
X221925Y104747D01*
X221925Y110985D02*
X221925Y115115D01*
X221925Y110985D02*
X217295Y110985D01*
X217295Y115115D01*
X221925Y115115D01*
X221925Y112666D02*
X217295Y112666D01*
X217295Y114347D02*
X221925Y114347D01*
X203125Y101135D02*
X198995Y101135D01*
X198995Y105765D01*
X203125Y105765D01*
X203125Y101135D01*
X203125Y102816D02*
X198995Y102816D01*
X198995Y104497D02*
X203125Y104497D01*
X208595Y101135D02*
X212725Y101135D01*
X208595Y101135D02*
X208595Y105765D01*
X212725Y105765D01*
X212725Y101135D01*
X212725Y102816D02*
X208595Y102816D01*
X208595Y104497D02*
X212725Y104497D01*
X212725Y87015D02*
X208595Y87015D01*
X212725Y87015D02*
X212725Y82385D01*
X208595Y82385D01*
X208595Y87015D01*
X208595Y84066D02*
X212725Y84066D01*
X212725Y85747D02*
X208595Y85747D01*
X203125Y87015D02*
X198995Y87015D01*
X203125Y87015D02*
X203125Y82385D01*
X198995Y82385D01*
X198995Y87015D01*
X198995Y84066D02*
X203125Y84066D01*
X203125Y85747D02*
X198995Y85747D01*
X208595Y115365D02*
X212725Y115365D01*
X212725Y110735D01*
X208595Y110735D01*
X208595Y115365D01*
X208595Y112416D02*
X212725Y112416D01*
X212725Y114097D02*
X208595Y114097D01*
X203125Y115365D02*
X198995Y115365D01*
X203125Y115365D02*
X203125Y110735D01*
X198995Y110735D01*
X198995Y115365D01*
X198995Y112416D02*
X203125Y112416D01*
X203125Y114097D02*
X198995Y114097D01*
X227295Y115115D02*
X227295Y110985D01*
X227295Y115115D02*
X231925Y115115D01*
X231925Y110985D01*
X227295Y110985D01*
X227295Y112666D02*
X231925Y112666D01*
X231925Y114347D02*
X227295Y114347D01*
X227295Y105515D02*
X227295Y101385D01*
X227295Y105515D02*
X231925Y105515D01*
X231925Y101385D01*
X227295Y101385D01*
X227295Y103066D02*
X231925Y103066D01*
X231925Y104747D02*
X227295Y104747D01*
X276325Y171075D02*
X280455Y171075D01*
X280455Y166445D01*
X276325Y166445D01*
X276325Y171075D01*
X276325Y168126D02*
X280455Y168126D01*
X280455Y169807D02*
X276325Y169807D01*
X270855Y171075D02*
X266725Y171075D01*
X270855Y171075D02*
X270855Y166445D01*
X266725Y166445D01*
X266725Y171075D01*
X266725Y168126D02*
X270855Y168126D01*
X270855Y169807D02*
X266725Y169807D01*
X266725Y156135D02*
X270855Y156135D01*
X266725Y156135D02*
X266725Y160765D01*
X270855Y160765D01*
X270855Y156135D01*
X270855Y157816D02*
X266725Y157816D01*
X266725Y159497D02*
X270855Y159497D01*
X276325Y156135D02*
X280455Y156135D01*
X276325Y156135D02*
X276325Y160765D01*
X280455Y160765D01*
X280455Y156135D01*
X280455Y157816D02*
X276325Y157816D01*
X276325Y159497D02*
X280455Y159497D01*
X222295Y96365D02*
X222295Y92235D01*
X222295Y96365D02*
X226925Y96365D01*
X226925Y92235D01*
X222295Y92235D01*
X222295Y93916D02*
X226925Y93916D01*
X226925Y95597D02*
X222295Y95597D01*
X222295Y86765D02*
X222295Y82635D01*
X222295Y86765D02*
X226925Y86765D01*
X226925Y82635D01*
X222295Y82635D01*
X222295Y84316D02*
X226925Y84316D01*
X226925Y85997D02*
X222295Y85997D01*
X222295Y77615D02*
X222295Y73485D01*
X222295Y77615D02*
X226925Y77615D01*
X226925Y73485D01*
X222295Y73485D01*
X222295Y75166D02*
X226925Y75166D01*
X226925Y76847D02*
X222295Y76847D01*
X222295Y68015D02*
X222295Y63885D01*
X222295Y68015D02*
X226925Y68015D01*
X226925Y63885D01*
X222295Y63885D01*
X222295Y65566D02*
X226925Y65566D01*
X226925Y67247D02*
X222295Y67247D01*
D12*
X224413Y174503D03*
D13*
X224416Y189521D03*
D14*
X224418Y159487D03*
D15*
X209395Y189536D03*
D16*
X209405Y174503D03*
D17*
X209399Y159489D03*
D18*
X239430Y189520D03*
D19*
X239439Y174508D03*
D20*
X239418Y159497D03*
D21*
X201910Y201000D02*
X201910Y207000D01*
X206910Y207000D02*
X206910Y201000D01*
X211910Y201000D02*
X211910Y207000D01*
X216910Y207000D02*
X216910Y201000D01*
X221910Y201000D02*
X221910Y207000D01*
X226910Y207000D02*
X226910Y201000D01*
X231910Y201000D02*
X231910Y207000D01*
X236910Y207000D02*
X236910Y201000D01*
X241910Y201000D02*
X241910Y207000D01*
X246910Y207000D02*
X246910Y201000D01*
X250910Y197000D02*
X256910Y197000D01*
X256910Y192000D02*
X250910Y192000D01*
X250910Y187000D02*
X256910Y187000D01*
X256910Y182000D02*
X250910Y182000D01*
X250910Y177000D02*
X256910Y177000D01*
X256910Y172000D02*
X250910Y172000D01*
X250910Y167000D02*
X256910Y167000D01*
X256910Y162000D02*
X250910Y162000D01*
X250910Y157000D02*
X256910Y157000D01*
X256910Y152000D02*
X250910Y152000D01*
X246910Y148000D02*
X246910Y142000D01*
X241910Y142000D02*
X241910Y148000D01*
X236910Y148000D02*
X236910Y142000D01*
X231910Y142000D02*
X231910Y148000D01*
X226910Y148000D02*
X226910Y142000D01*
X221910Y142000D02*
X221910Y148000D01*
X216910Y148000D02*
X216910Y142000D01*
X211910Y142000D02*
X211910Y148000D01*
X206910Y148000D02*
X206910Y142000D01*
X201910Y142000D02*
X201910Y148000D01*
X197910Y152000D02*
X191910Y152000D01*
X191910Y157000D02*
X197910Y157000D01*
X197910Y162000D02*
X191910Y162000D01*
X191910Y167000D02*
X197910Y167000D01*
X197910Y172000D02*
X191910Y172000D01*
X191910Y177000D02*
X197910Y177000D01*
X197910Y182000D02*
X191910Y182000D01*
X191910Y187000D02*
X197910Y187000D01*
X197910Y192000D02*
X191910Y192000D01*
X191910Y197000D02*
X197910Y197000D01*
D11*
X198965Y133865D02*
X198965Y129735D01*
X198965Y133865D02*
X203595Y133865D01*
X203595Y129735D01*
X198965Y129735D01*
X198965Y131416D02*
X203595Y131416D01*
X203595Y133097D02*
X198965Y133097D01*
X198965Y124265D02*
X198965Y120135D01*
X198965Y124265D02*
X203595Y124265D01*
X203595Y120135D01*
X198965Y120135D01*
X198965Y121816D02*
X203595Y121816D01*
X203595Y123497D02*
X198965Y123497D01*
X208165Y129735D02*
X208165Y133865D01*
X212795Y133865D01*
X212795Y129735D01*
X208165Y129735D01*
X208165Y131416D02*
X212795Y131416D01*
X212795Y133097D02*
X208165Y133097D01*
X208165Y124265D02*
X208165Y120135D01*
X208165Y124265D02*
X212795Y124265D01*
X212795Y120135D01*
X208165Y120135D01*
X208165Y121816D02*
X212795Y121816D01*
X212795Y123497D02*
X208165Y123497D01*
X172435Y129735D02*
X172435Y133865D01*
X177065Y133865D01*
X177065Y129735D01*
X172435Y129735D01*
X172435Y131416D02*
X177065Y131416D01*
X177065Y133097D02*
X172435Y133097D01*
X172435Y124265D02*
X172435Y120135D01*
X172435Y124265D02*
X177065Y124265D01*
X177065Y120135D01*
X172435Y120135D01*
X172435Y121816D02*
X177065Y121816D01*
X177065Y123497D02*
X172435Y123497D01*
X265475Y139385D02*
X269605Y139385D01*
X265475Y139385D02*
X265475Y144015D01*
X269605Y144015D01*
X269605Y139385D01*
X269605Y141066D02*
X265475Y141066D01*
X265475Y142747D02*
X269605Y142747D01*
X275075Y139385D02*
X279205Y139385D01*
X275075Y139385D02*
X275075Y144015D01*
X279205Y144015D01*
X279205Y139385D01*
X279205Y141066D02*
X275075Y141066D01*
X275075Y142747D02*
X279205Y142747D01*
X240625Y120005D02*
X236495Y120005D01*
X236495Y124635D01*
X240625Y124635D01*
X240625Y120005D01*
X240625Y121686D02*
X236495Y121686D01*
X236495Y123367D02*
X240625Y123367D01*
X246095Y120005D02*
X250225Y120005D01*
X246095Y120005D02*
X246095Y124635D01*
X250225Y124635D01*
X250225Y120005D01*
X250225Y121686D02*
X246095Y121686D01*
X246095Y123367D02*
X250225Y123367D01*
X251245Y215135D02*
X251245Y219265D01*
X251245Y215135D02*
X246615Y215135D01*
X246615Y219265D01*
X251245Y219265D01*
X251245Y216816D02*
X246615Y216816D01*
X246615Y218497D02*
X251245Y218497D01*
X251245Y224735D02*
X251245Y228865D01*
X251245Y224735D02*
X246615Y224735D01*
X246615Y228865D01*
X251245Y228865D01*
X251245Y226416D02*
X246615Y226416D01*
X246615Y228097D02*
X251245Y228097D01*
X174015Y194315D02*
X169885Y194315D01*
X174015Y194315D02*
X174015Y189685D01*
X169885Y189685D01*
X169885Y194315D01*
X169885Y191366D02*
X174015Y191366D01*
X174015Y193047D02*
X169885Y193047D01*
X164415Y194315D02*
X160285Y194315D01*
X164415Y194315D02*
X164415Y189685D01*
X160285Y189685D01*
X160285Y194315D01*
X160285Y191366D02*
X164415Y191366D01*
X164415Y193047D02*
X160285Y193047D01*
X190525Y124515D02*
X190525Y120385D01*
X185895Y120385D01*
X185895Y124515D01*
X190525Y124515D01*
X190525Y122066D02*
X185895Y122066D01*
X185895Y123747D02*
X190525Y123747D01*
X190525Y129985D02*
X190525Y134115D01*
X190525Y129985D02*
X185895Y129985D01*
X185895Y134115D01*
X190525Y134115D01*
X190525Y131666D02*
X185895Y131666D01*
X185895Y133347D02*
X190525Y133347D01*
D22*
X276720Y113300D03*
X276720Y127800D03*
X265220Y113300D03*
D11*
X183965Y203635D02*
X179835Y203635D01*
X183965Y203635D02*
X183965Y199005D01*
X179835Y199005D01*
X179835Y203635D01*
X179835Y200686D02*
X183965Y200686D01*
X183965Y202367D02*
X179835Y202367D01*
X174365Y203635D02*
X170235Y203635D01*
X174365Y203635D02*
X174365Y199005D01*
X170235Y199005D01*
X170235Y203635D01*
X170235Y200686D02*
X174365Y200686D01*
X174365Y202367D02*
X170235Y202367D01*
X260135Y100355D02*
X264265Y100355D01*
X260135Y100355D02*
X260135Y104985D01*
X264265Y104985D01*
X264265Y100355D01*
X264265Y102036D02*
X260135Y102036D01*
X260135Y103717D02*
X264265Y103717D01*
X269735Y100355D02*
X273865Y100355D01*
X269735Y100355D02*
X269735Y104985D01*
X273865Y104985D01*
X273865Y100355D01*
X273865Y102036D02*
X269735Y102036D01*
X269735Y103717D02*
X273865Y103717D01*
X283955Y125935D02*
X283955Y130065D01*
X288585Y130065D01*
X288585Y125935D01*
X283955Y125935D01*
X283955Y127616D02*
X288585Y127616D01*
X288585Y129297D02*
X283955Y129297D01*
X283955Y120465D02*
X283955Y116335D01*
X283955Y120465D02*
X288585Y120465D01*
X288585Y116335D01*
X283955Y116335D01*
X283955Y118016D02*
X288585Y118016D01*
X288585Y119697D02*
X283955Y119697D01*
D23*
X176150Y148230D03*
X151150Y148230D03*
D11*
X175075Y165345D02*
X179205Y165345D01*
X179205Y160715D01*
X175075Y160715D01*
X175075Y165345D01*
X175075Y162396D02*
X179205Y162396D01*
X179205Y164077D02*
X175075Y164077D01*
X169605Y165345D02*
X165475Y165345D01*
X169605Y165345D02*
X169605Y160715D01*
X165475Y160715D01*
X165475Y165345D01*
X165475Y162396D02*
X169605Y162396D01*
X169605Y164077D02*
X165475Y164077D01*
X159795Y165675D02*
X155665Y165675D01*
X159795Y165675D02*
X159795Y161045D01*
X155665Y161045D01*
X155665Y165675D01*
X155665Y162726D02*
X159795Y162726D01*
X159795Y164407D02*
X155665Y164407D01*
X150195Y165675D02*
X146065Y165675D01*
X150195Y165675D02*
X150195Y161045D01*
X146065Y161045D01*
X146065Y165675D01*
X146065Y162726D02*
X150195Y162726D01*
X150195Y164407D02*
X146065Y164407D01*
X97285Y120785D02*
X93155Y120785D01*
X93155Y125415D01*
X97285Y125415D01*
X97285Y120785D01*
X97285Y122466D02*
X93155Y122466D01*
X93155Y124147D02*
X97285Y124147D01*
X102755Y120785D02*
X106885Y120785D01*
X102755Y120785D02*
X102755Y125415D01*
X106885Y125415D01*
X106885Y120785D01*
X106885Y122466D02*
X102755Y122466D01*
X102755Y124147D02*
X106885Y124147D01*
X59145Y120635D02*
X55015Y120635D01*
X55015Y125265D01*
X59145Y125265D01*
X59145Y120635D01*
X59145Y122316D02*
X55015Y122316D01*
X55015Y123997D02*
X59145Y123997D01*
X64615Y120635D02*
X68745Y120635D01*
X64615Y120635D02*
X64615Y125265D01*
X68745Y125265D01*
X68745Y120635D01*
X68745Y122316D02*
X64615Y122316D01*
X64615Y123997D02*
X68745Y123997D01*
D24*
X36080Y206030D03*
X19080Y206030D03*
X36080Y185230D03*
X19080Y185230D03*
X36120Y162370D03*
X19120Y162370D03*
X36120Y138070D03*
X19120Y138070D03*
D11*
X232135Y215035D02*
X232135Y219165D01*
X232135Y215035D02*
X227505Y215035D01*
X227505Y219165D01*
X232135Y219165D01*
X232135Y216716D02*
X227505Y216716D01*
X227505Y218397D02*
X232135Y218397D01*
X232135Y224635D02*
X232135Y228765D01*
X232135Y224635D02*
X227505Y224635D01*
X227505Y228765D01*
X232135Y228765D01*
X232135Y226316D02*
X227505Y226316D01*
X227505Y227997D02*
X232135Y227997D01*
X174245Y211495D02*
X170115Y211495D01*
X170115Y216125D01*
X174245Y216125D01*
X174245Y211495D01*
X174245Y213176D02*
X170115Y213176D01*
X170115Y214857D02*
X174245Y214857D01*
X179715Y211495D02*
X183845Y211495D01*
X179715Y211495D02*
X179715Y216125D01*
X183845Y216125D01*
X183845Y211495D01*
X183845Y213176D02*
X179715Y213176D01*
X179715Y214857D02*
X183845Y214857D01*
D25*
X57524Y139364D03*
X57524Y162224D03*
X57524Y185084D03*
D26*
X120516Y161970D03*
D11*
X237185Y224735D02*
X237185Y228865D01*
X241815Y228865D01*
X241815Y224735D01*
X237185Y224735D01*
X237185Y226416D02*
X241815Y226416D01*
X241815Y228097D02*
X237185Y228097D01*
X237185Y219265D02*
X237185Y215135D01*
X237185Y219265D02*
X241815Y219265D01*
X241815Y215135D01*
X237185Y215135D01*
X237185Y216816D02*
X241815Y216816D01*
X241815Y218497D02*
X237185Y218497D01*
X164395Y180055D02*
X160265Y180055D01*
X160265Y184685D01*
X164395Y184685D01*
X164395Y180055D01*
X164395Y181736D02*
X160265Y181736D01*
X160265Y183417D02*
X164395Y183417D01*
X169865Y180055D02*
X173995Y180055D01*
X169865Y180055D02*
X169865Y184685D01*
X173995Y184685D01*
X173995Y180055D01*
X173995Y181736D02*
X169865Y181736D01*
X169865Y183417D02*
X173995Y183417D01*
M02*
