G04 EAGLE Gerber RS-274X export*
G75*
%MOMM*%
%FSLAX34Y34*%
%LPD*%
%INSolderpaste Bottom*%
%IPPOS*%
%AMOC8*
5,1,8,0,0,1.08239X$1,22.5*%
G01*
%ADD10R,1.000000X1.400000*%
%ADD11C,0.177000*%
%ADD12R,1.200578X1.200578*%
%ADD13R,1.201197X1.204200*%
%ADD14R,1.201694X1.197459*%
%ADD15R,1.196956X1.207109*%
%ADD16R,1.198988X1.200675*%
%ADD17R,1.197738X1.197738*%
%ADD18R,1.204091X1.204091*%
%ADD19R,1.205759X1.201647*%
%ADD20R,1.201550X1.199331*%
%ADD21C,0.300000*%
%ADD22R,0.750000X0.850000*%
%ADD23R,1.000000X1.800000*%
%ADD24R,1.100000X1.000000*%
%ADD25R,2.006600X1.498600*%
%ADD26R,2.006600X3.810000*%

G36*
X266274Y123559D02*
X266274Y123559D01*
X266331Y123569D01*
X266345Y123580D01*
X266353Y123582D01*
X266362Y123592D01*
X266397Y123617D01*
X268897Y126117D01*
X268925Y126168D01*
X268958Y126216D01*
X268961Y126233D01*
X268965Y126240D01*
X268964Y126253D01*
X268971Y126296D01*
X268971Y131796D01*
X268967Y131811D01*
X268969Y131827D01*
X268948Y131878D01*
X268932Y131931D01*
X268920Y131942D01*
X268914Y131956D01*
X268868Y131988D01*
X268827Y132025D01*
X268811Y132027D01*
X268798Y132036D01*
X268718Y132049D01*
X261718Y132049D01*
X261703Y132045D01*
X261687Y132047D01*
X261636Y132026D01*
X261583Y132010D01*
X261572Y131998D01*
X261558Y131992D01*
X261526Y131946D01*
X261489Y131905D01*
X261487Y131889D01*
X261478Y131876D01*
X261465Y131796D01*
X261465Y123796D01*
X261469Y123781D01*
X261467Y123765D01*
X261488Y123714D01*
X261504Y123661D01*
X261516Y123650D01*
X261522Y123636D01*
X261568Y123604D01*
X261609Y123567D01*
X261625Y123565D01*
X261638Y123556D01*
X261718Y123543D01*
X266218Y123543D01*
X266274Y123559D01*
G37*
D10*
X146400Y249270D03*
X136900Y227270D03*
X155900Y227270D03*
D11*
X227295Y133865D02*
X227295Y129735D01*
X227295Y133865D02*
X231925Y133865D01*
X231925Y129735D01*
X227295Y129735D01*
X227295Y131416D02*
X231925Y131416D01*
X231925Y133097D02*
X227295Y133097D01*
X227295Y124265D02*
X227295Y120135D01*
X227295Y124265D02*
X231925Y124265D01*
X231925Y120135D01*
X227295Y120135D01*
X227295Y121816D02*
X231925Y121816D01*
X231925Y123497D02*
X227295Y123497D01*
X221925Y124265D02*
X221925Y120135D01*
X217295Y120135D01*
X217295Y124265D01*
X221925Y124265D01*
X221925Y121816D02*
X217295Y121816D01*
X217295Y123497D02*
X221925Y123497D01*
X221925Y129735D02*
X221925Y133865D01*
X221925Y129735D02*
X217295Y129735D01*
X217295Y133865D01*
X221925Y133865D01*
X221925Y131416D02*
X217295Y131416D01*
X217295Y133097D02*
X221925Y133097D01*
X236495Y110735D02*
X240625Y110735D01*
X236495Y110735D02*
X236495Y115365D01*
X240625Y115365D01*
X240625Y110735D01*
X240625Y112416D02*
X236495Y112416D01*
X236495Y114097D02*
X240625Y114097D01*
X246095Y110735D02*
X250225Y110735D01*
X246095Y110735D02*
X246095Y115365D01*
X250225Y115365D01*
X250225Y110735D01*
X250225Y112416D02*
X246095Y112416D01*
X246095Y114097D02*
X250225Y114097D01*
X221925Y105515D02*
X221925Y101385D01*
X217295Y101385D01*
X217295Y105515D01*
X221925Y105515D01*
X221925Y103066D02*
X217295Y103066D01*
X217295Y104747D02*
X221925Y104747D01*
X221925Y110985D02*
X221925Y115115D01*
X221925Y110985D02*
X217295Y110985D01*
X217295Y115115D01*
X221925Y115115D01*
X221925Y112666D02*
X217295Y112666D01*
X217295Y114347D02*
X221925Y114347D01*
X203125Y101135D02*
X198995Y101135D01*
X198995Y105765D01*
X203125Y105765D01*
X203125Y101135D01*
X203125Y102816D02*
X198995Y102816D01*
X198995Y104497D02*
X203125Y104497D01*
X208595Y101135D02*
X212725Y101135D01*
X208595Y101135D02*
X208595Y105765D01*
X212725Y105765D01*
X212725Y101135D01*
X212725Y102816D02*
X208595Y102816D01*
X208595Y104497D02*
X212725Y104497D01*
X212725Y87015D02*
X208595Y87015D01*
X212725Y87015D02*
X212725Y82385D01*
X208595Y82385D01*
X208595Y87015D01*
X208595Y84066D02*
X212725Y84066D01*
X212725Y85747D02*
X208595Y85747D01*
X203125Y87015D02*
X198995Y87015D01*
X203125Y87015D02*
X203125Y82385D01*
X198995Y82385D01*
X198995Y87015D01*
X198995Y84066D02*
X203125Y84066D01*
X203125Y85747D02*
X198995Y85747D01*
X208595Y115365D02*
X212725Y115365D01*
X212725Y110735D01*
X208595Y110735D01*
X208595Y115365D01*
X208595Y112416D02*
X212725Y112416D01*
X212725Y114097D02*
X208595Y114097D01*
X203125Y115365D02*
X198995Y115365D01*
X203125Y115365D02*
X203125Y110735D01*
X198995Y110735D01*
X198995Y115365D01*
X198995Y112416D02*
X203125Y112416D01*
X203125Y114097D02*
X198995Y114097D01*
X227295Y115115D02*
X227295Y110985D01*
X227295Y115115D02*
X231925Y115115D01*
X231925Y110985D01*
X227295Y110985D01*
X227295Y112666D02*
X231925Y112666D01*
X231925Y114347D02*
X227295Y114347D01*
X227295Y105515D02*
X227295Y101385D01*
X227295Y105515D02*
X231925Y105515D01*
X231925Y101385D01*
X227295Y101385D01*
X227295Y103066D02*
X231925Y103066D01*
X231925Y104747D02*
X227295Y104747D01*
X276325Y171079D02*
X280455Y171079D01*
X280455Y166449D01*
X276325Y166449D01*
X276325Y171079D01*
X276325Y168130D02*
X280455Y168130D01*
X280455Y169811D02*
X276325Y169811D01*
X270855Y171079D02*
X266725Y171079D01*
X270855Y171079D02*
X270855Y166449D01*
X266725Y166449D01*
X266725Y171079D01*
X266725Y168130D02*
X270855Y168130D01*
X270855Y169811D02*
X266725Y169811D01*
X266725Y156137D02*
X270855Y156137D01*
X266725Y156137D02*
X266725Y160767D01*
X270855Y160767D01*
X270855Y156137D01*
X270855Y157818D02*
X266725Y157818D01*
X266725Y159499D02*
X270855Y159499D01*
X276325Y156137D02*
X280455Y156137D01*
X276325Y156137D02*
X276325Y160767D01*
X280455Y160767D01*
X280455Y156137D01*
X280455Y157818D02*
X276325Y157818D01*
X276325Y159499D02*
X280455Y159499D01*
X222295Y96365D02*
X222295Y92235D01*
X222295Y96365D02*
X226925Y96365D01*
X226925Y92235D01*
X222295Y92235D01*
X222295Y93916D02*
X226925Y93916D01*
X226925Y95597D02*
X222295Y95597D01*
X222295Y86765D02*
X222295Y82635D01*
X222295Y86765D02*
X226925Y86765D01*
X226925Y82635D01*
X222295Y82635D01*
X222295Y84316D02*
X226925Y84316D01*
X226925Y85997D02*
X222295Y85997D01*
X222295Y77615D02*
X222295Y73485D01*
X222295Y77615D02*
X226925Y77615D01*
X226925Y73485D01*
X222295Y73485D01*
X222295Y75166D02*
X226925Y75166D01*
X226925Y76847D02*
X222295Y76847D01*
X222295Y68015D02*
X222295Y63885D01*
X222295Y68015D02*
X226925Y68015D01*
X226925Y63885D01*
X222295Y63885D01*
X222295Y65566D02*
X226925Y65566D01*
X226925Y67247D02*
X222295Y67247D01*
D12*
X224413Y174503D03*
D13*
X224416Y189521D03*
D14*
X224418Y159487D03*
D15*
X209395Y189536D03*
D16*
X209405Y174503D03*
D17*
X209399Y159489D03*
D18*
X239430Y189520D03*
D19*
X239439Y174508D03*
D20*
X239418Y159497D03*
D21*
X201910Y201000D02*
X201910Y207000D01*
X206910Y207000D02*
X206910Y201000D01*
X211910Y201000D02*
X211910Y207000D01*
X216910Y207000D02*
X216910Y201000D01*
X221910Y201000D02*
X221910Y207000D01*
X226910Y207000D02*
X226910Y201000D01*
X231910Y201000D02*
X231910Y207000D01*
X236910Y207000D02*
X236910Y201000D01*
X241910Y201000D02*
X241910Y207000D01*
X246910Y207000D02*
X246910Y201000D01*
X250910Y197000D02*
X256910Y197000D01*
X256910Y192000D02*
X250910Y192000D01*
X250910Y187000D02*
X256910Y187000D01*
X256910Y182000D02*
X250910Y182000D01*
X250910Y177000D02*
X256910Y177000D01*
X256910Y172000D02*
X250910Y172000D01*
X250910Y167000D02*
X256910Y167000D01*
X256910Y162000D02*
X250910Y162000D01*
X250910Y157000D02*
X256910Y157000D01*
X256910Y152000D02*
X250910Y152000D01*
X246910Y148000D02*
X246910Y142000D01*
X241910Y142000D02*
X241910Y148000D01*
X236910Y148000D02*
X236910Y142000D01*
X231910Y142000D02*
X231910Y148000D01*
X226910Y148000D02*
X226910Y142000D01*
X221910Y142000D02*
X221910Y148000D01*
X216910Y148000D02*
X216910Y142000D01*
X211910Y142000D02*
X211910Y148000D01*
X206910Y148000D02*
X206910Y142000D01*
X201910Y142000D02*
X201910Y148000D01*
X197910Y152000D02*
X191910Y152000D01*
X191910Y157000D02*
X197910Y157000D01*
X197910Y162000D02*
X191910Y162000D01*
X191910Y167000D02*
X197910Y167000D01*
X197910Y172000D02*
X191910Y172000D01*
X191910Y177000D02*
X197910Y177000D01*
X197910Y182000D02*
X191910Y182000D01*
X191910Y187000D02*
X197910Y187000D01*
X197910Y192000D02*
X191910Y192000D01*
X191910Y197000D02*
X197910Y197000D01*
D11*
X198965Y133865D02*
X198965Y129735D01*
X198965Y133865D02*
X203595Y133865D01*
X203595Y129735D01*
X198965Y129735D01*
X198965Y131416D02*
X203595Y131416D01*
X203595Y133097D02*
X198965Y133097D01*
X198965Y124265D02*
X198965Y120135D01*
X198965Y124265D02*
X203595Y124265D01*
X203595Y120135D01*
X198965Y120135D01*
X198965Y121816D02*
X203595Y121816D01*
X203595Y123497D02*
X198965Y123497D01*
X208165Y129735D02*
X208165Y133865D01*
X212795Y133865D01*
X212795Y129735D01*
X208165Y129735D01*
X208165Y131416D02*
X212795Y131416D01*
X212795Y133097D02*
X208165Y133097D01*
X208165Y124265D02*
X208165Y120135D01*
X208165Y124265D02*
X212795Y124265D01*
X212795Y120135D01*
X208165Y120135D01*
X208165Y121816D02*
X212795Y121816D01*
X212795Y123497D02*
X208165Y123497D01*
X172437Y129735D02*
X172437Y133865D01*
X177067Y133865D01*
X177067Y129735D01*
X172437Y129735D01*
X172437Y131416D02*
X177067Y131416D01*
X177067Y133097D02*
X172437Y133097D01*
X172437Y124265D02*
X172437Y120135D01*
X172437Y124265D02*
X177067Y124265D01*
X177067Y120135D01*
X172437Y120135D01*
X172437Y121816D02*
X177067Y121816D01*
X177067Y123497D02*
X172437Y123497D01*
X265475Y139385D02*
X269605Y139385D01*
X265475Y139385D02*
X265475Y144015D01*
X269605Y144015D01*
X269605Y139385D01*
X269605Y141066D02*
X265475Y141066D01*
X265475Y142747D02*
X269605Y142747D01*
X275075Y139385D02*
X279205Y139385D01*
X275075Y139385D02*
X275075Y144015D01*
X279205Y144015D01*
X279205Y139385D01*
X279205Y141066D02*
X275075Y141066D01*
X275075Y142747D02*
X279205Y142747D01*
X240625Y120005D02*
X236495Y120005D01*
X236495Y124635D01*
X240625Y124635D01*
X240625Y120005D01*
X240625Y121686D02*
X236495Y121686D01*
X236495Y123367D02*
X240625Y123367D01*
X246095Y120005D02*
X250225Y120005D01*
X246095Y120005D02*
X246095Y124635D01*
X250225Y124635D01*
X250225Y120005D01*
X250225Y121686D02*
X246095Y121686D01*
X246095Y123367D02*
X250225Y123367D01*
X251245Y215135D02*
X251245Y219265D01*
X251245Y215135D02*
X246615Y215135D01*
X246615Y219265D01*
X251245Y219265D01*
X251245Y216816D02*
X246615Y216816D01*
X246615Y218497D02*
X251245Y218497D01*
X251245Y224735D02*
X251245Y228865D01*
X251245Y224735D02*
X246615Y224735D01*
X246615Y228865D01*
X251245Y228865D01*
X251245Y226416D02*
X246615Y226416D01*
X246615Y228097D02*
X251245Y228097D01*
X174015Y194315D02*
X169885Y194315D01*
X174015Y194315D02*
X174015Y189685D01*
X169885Y189685D01*
X169885Y194315D01*
X169885Y191366D02*
X174015Y191366D01*
X174015Y193047D02*
X169885Y193047D01*
X164415Y194315D02*
X160285Y194315D01*
X164415Y194315D02*
X164415Y189685D01*
X160285Y189685D01*
X160285Y194315D01*
X160285Y191366D02*
X164415Y191366D01*
X164415Y193047D02*
X160285Y193047D01*
X190525Y124519D02*
X190525Y120389D01*
X185895Y120389D01*
X185895Y124519D01*
X190525Y124519D01*
X190525Y122070D02*
X185895Y122070D01*
X185895Y123751D02*
X190525Y123751D01*
X190525Y129989D02*
X190525Y134119D01*
X190525Y129989D02*
X185895Y129989D01*
X185895Y134119D01*
X190525Y134119D01*
X190525Y131670D02*
X185895Y131670D01*
X185895Y133351D02*
X190525Y133351D01*
D22*
X276718Y113296D03*
X276718Y127796D03*
X265218Y113296D03*
D11*
X183965Y203635D02*
X179835Y203635D01*
X183965Y203635D02*
X183965Y199005D01*
X179835Y199005D01*
X179835Y203635D01*
X179835Y200686D02*
X183965Y200686D01*
X183965Y202367D02*
X179835Y202367D01*
X174365Y203635D02*
X170235Y203635D01*
X174365Y203635D02*
X174365Y199005D01*
X170235Y199005D01*
X170235Y203635D01*
X170235Y200686D02*
X174365Y200686D01*
X174365Y202367D02*
X170235Y202367D01*
X260135Y100357D02*
X264265Y100357D01*
X260135Y100357D02*
X260135Y104987D01*
X264265Y104987D01*
X264265Y100357D01*
X264265Y102038D02*
X260135Y102038D01*
X260135Y103719D02*
X264265Y103719D01*
X269735Y100357D02*
X273865Y100357D01*
X269735Y100357D02*
X269735Y104987D01*
X273865Y104987D01*
X273865Y100357D01*
X273865Y102038D02*
X269735Y102038D01*
X269735Y103719D02*
X273865Y103719D01*
X283959Y125935D02*
X283959Y130065D01*
X288589Y130065D01*
X288589Y125935D01*
X283959Y125935D01*
X283959Y127616D02*
X288589Y127616D01*
X288589Y129297D02*
X283959Y129297D01*
X283959Y120465D02*
X283959Y116335D01*
X283959Y120465D02*
X288589Y120465D01*
X288589Y116335D01*
X283959Y116335D01*
X283959Y118016D02*
X288589Y118016D01*
X288589Y119697D02*
X283959Y119697D01*
D23*
X176154Y148226D03*
X151154Y148226D03*
D11*
X175073Y165341D02*
X179203Y165341D01*
X179203Y160711D01*
X175073Y160711D01*
X175073Y165341D01*
X175073Y162392D02*
X179203Y162392D01*
X179203Y164073D02*
X175073Y164073D01*
X169603Y165341D02*
X165473Y165341D01*
X169603Y165341D02*
X169603Y160711D01*
X165473Y160711D01*
X165473Y165341D01*
X165473Y162392D02*
X169603Y162392D01*
X169603Y164073D02*
X165473Y164073D01*
X159797Y165679D02*
X155667Y165679D01*
X159797Y165679D02*
X159797Y161049D01*
X155667Y161049D01*
X155667Y165679D01*
X155667Y162730D02*
X159797Y162730D01*
X159797Y164411D02*
X155667Y164411D01*
X150197Y165679D02*
X146067Y165679D01*
X150197Y165679D02*
X150197Y161049D01*
X146067Y161049D01*
X146067Y165679D01*
X146067Y162730D02*
X150197Y162730D01*
X150197Y164411D02*
X146067Y164411D01*
X97285Y120781D02*
X93155Y120781D01*
X93155Y125411D01*
X97285Y125411D01*
X97285Y120781D01*
X97285Y122462D02*
X93155Y122462D01*
X93155Y124143D02*
X97285Y124143D01*
X102755Y120781D02*
X106885Y120781D01*
X102755Y120781D02*
X102755Y125411D01*
X106885Y125411D01*
X106885Y120781D01*
X106885Y122462D02*
X102755Y122462D01*
X102755Y124143D02*
X106885Y124143D01*
X59145Y120633D02*
X55015Y120633D01*
X55015Y125263D01*
X59145Y125263D01*
X59145Y120633D01*
X59145Y122314D02*
X55015Y122314D01*
X55015Y123995D02*
X59145Y123995D01*
X64615Y120633D02*
X68745Y120633D01*
X64615Y120633D02*
X64615Y125263D01*
X68745Y125263D01*
X68745Y120633D01*
X68745Y122314D02*
X64615Y122314D01*
X64615Y123995D02*
X68745Y123995D01*
D24*
X36076Y206026D03*
X19076Y206026D03*
X36076Y185226D03*
X19076Y185226D03*
X36124Y162374D03*
X19124Y162374D03*
X36124Y138074D03*
X19124Y138074D03*
D11*
X232135Y215035D02*
X232135Y219165D01*
X232135Y215035D02*
X227505Y215035D01*
X227505Y219165D01*
X232135Y219165D01*
X232135Y216716D02*
X227505Y216716D01*
X227505Y218397D02*
X232135Y218397D01*
X232135Y224635D02*
X232135Y228765D01*
X232135Y224635D02*
X227505Y224635D01*
X227505Y228765D01*
X232135Y228765D01*
X232135Y226316D02*
X227505Y226316D01*
X227505Y227997D02*
X232135Y227997D01*
X174241Y211499D02*
X170111Y211499D01*
X170111Y216129D01*
X174241Y216129D01*
X174241Y211499D01*
X174241Y213180D02*
X170111Y213180D01*
X170111Y214861D02*
X174241Y214861D01*
X179711Y211499D02*
X183841Y211499D01*
X179711Y211499D02*
X179711Y216129D01*
X183841Y216129D01*
X183841Y211499D01*
X183841Y213180D02*
X179711Y213180D01*
X179711Y214861D02*
X183841Y214861D01*
D25*
X57528Y139368D03*
X57528Y162228D03*
X57528Y185088D03*
D26*
X120520Y161974D03*
D11*
X237185Y224735D02*
X237185Y228865D01*
X241815Y228865D01*
X241815Y224735D01*
X237185Y224735D01*
X237185Y226416D02*
X241815Y226416D01*
X241815Y228097D02*
X237185Y228097D01*
X237185Y219265D02*
X237185Y215135D01*
X237185Y219265D02*
X241815Y219265D01*
X241815Y215135D01*
X237185Y215135D01*
X237185Y216816D02*
X241815Y216816D01*
X241815Y218497D02*
X237185Y218497D01*
X164397Y180057D02*
X160267Y180057D01*
X160267Y184687D01*
X164397Y184687D01*
X164397Y180057D01*
X164397Y181738D02*
X160267Y181738D01*
X160267Y183419D02*
X164397Y183419D01*
X169867Y180057D02*
X173997Y180057D01*
X169867Y180057D02*
X169867Y184687D01*
X173997Y184687D01*
X173997Y180057D01*
X173997Y181738D02*
X169867Y181738D01*
X169867Y183419D02*
X173997Y183419D01*
M02*
