M48
;GenerationSoftware,Autodesk,EAGLE,9.4.2*%
;CreationDate,2019-07-20T01:31:42Z*%
FMAT,2
ICI,OFF
METRIC,TZ,000.000
T6C0.300
T5C0.350
T4C0.914
T3C1.000
T2C1.321
T1C1.400
%
G90
M71
T1
X32295Y41948
X28017Y39408
T2
X4303Y34360
X12839Y40777
X4303Y29331
X7835Y40777
X2831Y40777
T3
X12246Y32447
X14786Y32447
X24946Y32447
X32566Y32447
X32069Y13638
X32069Y18638
X2669Y8438
X2669Y23838
X32914Y28676
X12054Y28676
T4
X23578Y40027
X18498Y41297
T5
X15367Y18263
X13818Y11915
X13818Y6350
X21844Y21793
X16002Y12624
X15977Y10109
X2311Y6426
X27305Y17958
X14656Y12624
X6807Y6274
X3580Y6375
X4877Y6375
X17045Y11176
X6426Y11074
T6
X24536Y7722
X21488Y6452
X21438Y7518
X20345Y6172
X20371Y7010
X18593Y3759
X18593Y5283
X18593Y6604
X19050Y7722
X18745Y8890
X21438Y9398
X20117Y9398
X19152Y10160
X17729Y10058
X8509Y12395
X1321Y11836
X6502Y9804
X18186Y11557
X16307Y15062
X16053Y20269
X20091Y21361
X26416Y20676
X26543Y18999
X27305Y19914
X25603Y13462
X16840Y3937
X16815Y5309
X16764Y6655
X16688Y7849
X15672Y8763
X14808Y9931
X14732Y8230
X15113Y6782
X12827Y9855
X11608Y9474
X11201Y7899
X12751Y8026
X11836Y6579
X11735Y4877
X13716Y3251
X13665Y1448
X11557Y13462
X8865Y6629
X7976Y10008
X9296Y13691
X9195Y15138
X7925Y15088
X7722Y13741
X3810Y11735
X1321Y10058
X3962Y10033
X8788Y1499
X15240Y2235
X18415Y762
X25197Y10262
X7899Y18618
X9677Y18618
X9728Y17399
X29210Y19736
X29185Y18212
X29134Y16358
X28931Y21412
X28245Y22581
X27000Y23317
X25781Y24003
X24282Y24359
X22301Y24435
X16967Y22860
X18364Y24511
X20269Y24486
X16205Y24638
X13030Y25019
X11201Y25095
X11582Y23114
X9703Y21184
X12395Y20218
X14681Y20269
X13691Y19126
X8509Y24613
X8052Y22758
X4928Y22606
X5563Y20625
X7671Y20980
X5131Y25375
X1651Y25400
X1702Y22276
X2540Y10846
X11659Y19152
X23520Y6553
X25298Y6604
X34087Y6553
X32360Y6553
X30683Y6553
X28854Y6553
X27076Y6553
X23520Y7671
X25806Y21720
X18178Y22454
X18008Y19177
X26162Y7620
X26772Y15009
X27940Y7620
X29718Y7620
X31496Y7620
X33172Y7671
X23470Y8788
X25248Y8839
X34036Y8788
X32309Y8788
X30632Y8788
X28804Y8788
X27026Y8788
X24282Y9906
X28346Y10109
X29667Y9855
X31445Y9855
X33122Y9906
X29566Y11125
X30810Y11532
X32309Y11252
X7899Y17247
X21941Y17950
X21941Y16950
X22941Y16950
X22941Y17950
X22941Y18950
X21941Y18950
X20941Y18950
X20941Y17950
X20941Y16950
X20941Y15950
X21941Y15950
X22941Y15950
X23941Y15950
X23941Y16950
X23941Y17950
X23941Y18950
X33807Y11252
X29693Y12573
X28880Y15164
X28829Y13792
X23838Y13063
M30